<svg width="40" height="40" viewBox="0 0 40 40" fill="none" xmlns="http://www.w3.org/2000/svg">
<circle cx="20.3574" cy="19.6636" r="19.5" fill="#DFDBFF"/>
<path d="M20.6865 21.0896L15.0972 26.679C14.888 26.8881 14.6219 26.9927 14.2987 26.9927C13.9755 26.9927 13.7093 26.8881 13.5002 26.679C13.2911 26.4699 13.1865 26.2037 13.1865 25.8805C13.1865 25.5573 13.2911 25.2912 13.5002 25.082L19.0896 19.4927L13.5002 13.9033C13.2911 13.6942 13.1865 13.428 13.1865 13.1048C13.1865 12.7816 13.2911 12.5155 13.5002 12.3064C13.7093 12.0972 13.9755 11.9927 14.2987 11.9927C14.6219 11.9927 14.888 12.0972 15.0972 12.3064L20.6865 17.8957L26.2759 12.3064C26.485 12.0972 26.7512 11.9927 27.0744 11.9927C27.3975 11.9927 27.6637 12.0972 27.8728 12.3064C28.082 12.5155 28.1865 12.7816 28.1865 13.1048C28.1865 13.428 28.082 13.6942 27.8728 13.9033L22.2835 19.4927L27.8728 25.082C28.082 25.2912 28.1865 25.5573 28.1865 25.8805C28.1865 26.2037 28.082 26.4699 27.8728 26.679C27.6637 26.8881 27.3975 26.9927 27.0744 26.9927C26.7512 26.9927 26.485 26.8881 26.2759 26.679L20.6865 21.0896Z" fill="#654EFF"/>
</svg>
