<svg width="126" height="25" viewBox="0 0 126 25" fill="none" xmlns="http://www.w3.org/2000/svg">
<path d="M13.8781 4.85868C13.8313 5.17323 13.7844 5.38294 13.6908 5.45553C13.5737 5.56038 13.363 5.58457 13.0586 5.53618C12.7308 5.51198 12.3562 5.45553 11.9114 5.40713L10.4597 5.25389C9.94463 5.22969 9.45295 5.2055 8.98468 5.14904C8.493 5.12484 8.09497 5.10064 7.76718 5.10064C6.64334 5.10064 5.82387 5.28615 5.33219 5.6491C4.81709 6.01205 4.55955 6.51211 4.55955 7.08476C4.55955 7.50416 4.60637 7.86711 4.72344 8.12521C4.81709 8.4075 5.02781 8.64946 5.3556 8.8511C5.63656 9.085 6.058 9.2947 6.61993 9.50441C7.13502 9.73831 7.83742 9.9964 8.72713 10.311C9.85097 10.7304 10.7875 11.1175 11.5445 11.5127C12.2938 11.9321 12.8791 12.3757 13.3474 12.8919C13.7922 13.4404 14.12 14.0614 14.3073 14.7712C14.4946 15.4971 14.5883 16.3843 14.5883 17.3763C14.5883 19.7718 13.9561 21.5462 12.7152 22.7399C11.4509 23.8852 9.59343 24.482 7.20526 24.482C6.73699 24.482 6.24531 24.4336 5.68339 24.3772L3.99762 24.1433C3.4357 24.0384 2.94402 23.9578 2.47575 23.8852L1.42215 23.6513C1.18802 23.6029 1.02412 23.5222 0.953883 23.4416C0.860229 23.3367 0.836816 23.1593 0.883643 22.8931L1.21143 19.8686C1.23484 19.6831 1.28167 19.554 1.35191 19.4814C1.39874 19.433 1.53922 19.4008 1.77335 19.433C2.0309 19.4814 2.3821 19.5137 2.82695 19.5621C3.2484 19.6105 3.71666 19.6669 4.23176 19.7153C4.72344 19.7637 5.23853 19.8202 5.77704 19.8444C6.29214 19.8928 6.76041 19.925 7.18185 19.925C8.30569 19.925 9.10175 19.7395 9.59343 19.3524C10.0617 18.9894 10.2958 18.3603 10.2958 17.4731C10.2958 17.1344 10.249 16.8198 10.1553 16.5375C10.0617 16.2794 9.87439 16.0455 9.61684 15.7794C9.33588 15.5697 8.98468 15.3358 8.51641 15.1019C8.04814 14.8922 7.43939 14.6825 6.69017 14.4244C5.5195 14.0614 4.51272 13.6662 3.70886 13.2549C2.88939 12.8677 2.23382 12.3919 1.74213 11.8515C1.22704 11.3272 0.852425 10.7304 0.618291 10.0045C0.384157 9.30277 0.26709 8.43976 0.26709 7.42351C0.26709 6.3266 0.430984 5.34261 0.782185 4.45541C1.10997 3.62466 1.62507 2.8907 2.28064 2.29385C2.9128 1.7212 3.70886 1.3018 4.6454 0.987242C5.55852 0.696885 6.58871 0.54364 7.76718 0.54364C8.18862 0.54364 8.6803 0.567837 9.21881 0.624295C9.73391 0.70495 10.249 0.77754 10.7875 0.833998C11.3026 0.938849 11.7943 1.0195 12.2626 1.09209C12.7308 1.19695 13.1288 1.2776 13.4566 1.32599C13.6908 1.37439 13.8781 1.45504 13.9951 1.55989C14.0888 1.66474 14.1356 1.87445 14.1122 2.15674L13.8781 4.86675V4.85868Z" fill="#654EFF"/>
<path d="M28.0896 20.1024H21.3153L20.7065 23.3609C20.6129 23.6996 20.5192 23.9335 20.4256 24.0384C20.3085 24.1191 20.0744 24.1674 19.7466 24.1674H16.9526C16.6248 24.1674 16.4141 24.0868 16.3204 23.9819C16.2034 23.8287 16.18 23.5948 16.2736 23.2238L20.4178 2.04379C20.4412 1.89055 20.488 1.72924 20.5348 1.57599C20.5817 1.44695 20.6519 1.3179 20.7456 1.18885C20.8392 1.084 20.9797 0.979147 21.167 0.898492C21.3309 0.850099 21.565 0.79364 21.846 0.79364H27.5433C27.8242 0.79364 28.0584 0.842033 28.2457 0.898492C28.4096 0.979147 28.55 1.084 28.6437 1.18885C28.7373 1.3179 28.8076 1.44695 28.8544 1.57599C28.9012 1.72924 28.9246 1.89055 28.9715 2.04379L33.1235 23.2238C33.1937 23.5867 33.1937 23.8206 33.1 23.9819C32.983 24.0868 32.7723 24.1674 32.4445 24.1674H29.6505C29.2993 24.1674 29.0651 24.1191 28.9715 24.0384C28.8544 23.9335 28.7608 23.6996 28.6905 23.3609L28.0818 20.1024H28.0896ZM22.1348 15.7471H27.2701L25.28 5.09255H24.1327L22.1426 15.7471H22.1348Z" fill="#654EFF"/>
<path d="M40.9203 19.8685H42.0676L45.4859 1.60019C45.5562 1.26144 45.6498 1.02754 45.7669 0.922688C45.8605 0.842033 46.0947 0.79364 46.4459 0.79364H49.2399C49.5677 0.79364 49.7784 0.874295 49.8954 0.979147C49.9891 1.13239 49.9891 1.36629 49.9189 1.7373L45.7669 22.9173C45.7201 23.0705 45.6966 23.2318 45.6498 23.3851C45.603 23.5141 45.5327 23.6432 45.4391 23.7722C45.3454 23.8771 45.205 23.9819 45.0411 24.0626C44.8538 24.111 44.6196 24.1674 44.3387 24.1674H38.6414C38.3604 24.1674 38.1263 24.1191 37.9624 24.0626C37.7751 23.9819 37.6346 23.8771 37.541 23.7722C37.4473 23.6432 37.3771 23.5141 37.3302 23.3851C37.2834 23.2318 37.2366 23.0705 37.2132 22.9173L33.0612 1.7373C32.9676 1.37436 32.991 1.14046 33.108 0.979147C33.2017 0.874295 33.4124 0.79364 33.7402 0.79364H36.5342C36.862 0.79364 37.0961 0.842033 37.2132 0.922688C37.3068 1.02754 37.4005 1.26144 37.4941 1.60019L40.9203 19.8605V19.8685Z" fill="#654EFF"/>
<path d="M57.3799 10.4884H64.9502C65.1609 10.4884 65.3248 10.5368 65.4185 10.6174C65.5121 10.7223 65.559 10.8755 65.559 11.1417V14.2711C65.559 14.5292 65.5121 14.7147 65.4185 14.7953C65.3248 14.9002 65.1609 14.9244 64.9502 14.9244H57.3799V18.4409C57.3799 18.9652 57.4501 19.304 57.614 19.4572C57.7545 19.6669 58.0589 19.7395 58.4803 19.7395H65.8399C66.0506 19.7395 66.2145 19.7879 66.3082 19.8685C66.4018 19.9734 66.4487 20.1266 66.4487 20.3928V23.5222C66.4487 23.7803 66.4018 23.9416 66.3082 24.0465C66.2145 24.1271 66.0506 24.1755 65.8399 24.1755H55.9673C55.3117 24.1755 54.7966 24.0949 54.422 23.9416C54.0474 23.7884 53.7664 23.5545 53.5791 23.2883C53.3684 22.9738 53.2513 22.635 53.2045 22.2479C53.1342 21.8285 53.1108 21.3607 53.1108 20.8929V4.0763C53.1108 3.6085 53.1342 3.1407 53.2045 2.72129C53.2513 2.33415 53.3684 1.9954 53.5791 1.68084C53.7664 1.42275 54.0474 1.18885 54.422 1.02754C54.7966 0.874295 55.3117 0.79364 55.9673 0.79364H65.8399C66.0506 0.79364 66.2145 0.842033 66.3082 0.922688C66.4018 1.02754 66.4487 1.18078 66.4487 1.44695V4.57636C66.4487 4.83445 66.4018 5.01996 66.3082 5.10061C66.2145 5.20547 66.0506 5.22966 65.8399 5.22966H58.4803C58.0589 5.22966 57.7545 5.33451 57.614 5.48776C57.4501 5.69746 57.3799 6.03621 57.3799 6.52821V10.4884Z" fill="#654EFF"/>
<path d="M80.8091 17.4973V23.5141C80.8091 23.7722 80.7623 23.9335 80.6686 24.0384C80.5749 24.1191 80.4111 24.1674 80.2003 24.1674H77.1488C76.9147 24.1674 76.7742 24.1191 76.6805 24.0384C76.5869 23.9335 76.54 23.7803 76.54 23.5141V4.0763C76.54 3.6085 76.5635 3.1407 76.6337 2.72129C76.6805 2.33415 76.7976 1.9954 77.0083 1.68084C77.1956 1.42275 77.4766 1.18885 77.8512 1.02754C78.2258 0.874295 78.7409 0.79364 79.3965 0.79364H84.1572C86.5922 0.79364 88.4497 1.47114 89.6906 2.82615C90.9081 4.18115 91.5402 6.23785 91.5402 8.94786C91.5402 11.6579 90.9081 13.7952 89.6906 15.2551C88.4497 16.7633 86.5922 17.4973 84.1572 17.4973H80.8013H80.8091ZM80.8091 12.9887H84.1416C85.1718 12.9887 85.9678 12.6499 86.5063 11.924C87.0214 11.2465 87.279 10.2545 87.279 8.95592C87.279 7.65738 87.0214 6.79437 86.5063 6.19752C85.9678 5.62487 85.1718 5.31032 84.1416 5.31032H81.9173C81.4959 5.31032 81.1915 5.41517 81.051 5.56841C80.8871 5.77812 80.8169 6.11687 80.8169 6.60886V12.9887H80.8091Z" fill="#654EFF"/>
<path d="M104.121 20.1024H97.3465L96.7378 23.3609C96.6441 23.6996 96.5505 23.9335 96.4568 24.0384C96.3398 24.1191 96.1056 24.1674 95.7778 24.1674H92.9838C92.6561 24.1674 92.4453 24.0868 92.3517 23.9819C92.2346 23.8287 92.2112 23.5948 92.3049 23.2238L96.4568 2.04379C96.4802 1.89055 96.5271 1.72924 96.5739 1.57599C96.6207 1.44695 96.691 1.3179 96.7846 1.18885C96.8783 1.084 97.0188 0.979147 97.2061 0.898492C97.37 0.850099 97.6041 0.79364 97.8851 0.79364H103.582C103.863 0.79364 104.097 0.842033 104.285 0.898492C104.449 0.979147 104.589 1.084 104.683 1.18885C104.776 1.3179 104.847 1.44695 104.893 1.57599C104.94 1.72924 104.964 1.89055 105.011 2.04379L109.163 23.2238C109.233 23.5867 109.233 23.8206 109.139 23.9819C109.022 24.0868 108.811 24.1674 108.484 24.1674H105.69C105.338 24.1674 105.104 24.1191 105.011 24.0384C104.893 23.9335 104.8 23.6996 104.73 23.3609L104.121 20.1024ZM98.166 15.7471H103.301L101.311 5.09255H100.164L98.1738 15.7471H98.166Z" fill="#654EFF"/>
<path d="M120.393 1.57599C120.487 1.36629 120.604 1.18885 120.791 1.02754C120.932 0.874295 121.166 0.79364 121.494 0.79364H124.522C124.756 0.79364 124.943 0.874295 125.061 0.979147C125.154 1.13239 125.131 1.36629 124.99 1.68084L119.176 14.2146V23.5141C119.176 23.7722 119.129 23.9335 119.035 24.0384C118.942 24.1191 118.778 24.1674 118.567 24.1674H115.562C115.328 24.1674 115.188 24.1191 115.094 24.0384C115.001 23.9335 114.954 23.7803 114.954 23.5141V14.1904L109.046 1.68084C108.882 1.36629 108.858 1.13239 108.976 0.979147C109.069 0.874295 109.256 0.79364 109.514 0.79364H112.542C112.847 0.79364 113.081 0.874295 113.268 1.02754C113.408 1.18078 113.549 1.36629 113.643 1.57599L117.045 8.94786L120.401 1.57599H120.393Z" fill="#654EFF"/>
</svg>