
<svg width="153" height="30" viewBox="0 0 153 30" fill="none" xmlns="http://www.w3.org/2000/svg">
<g clip-path="url(#clip0_3_7852)">
<path d="M17.106 5.26105C17.049 5.64385 16.992 5.89905 16.8781 5.98739C16.7356 6.11499 16.4792 6.14443 16.1087 6.08554C15.7098 6.0561 15.2539 5.98739 14.7126 5.9285L12.946 5.742C12.3192 5.71256 11.7208 5.68311 11.1509 5.6144C10.5526 5.58496 10.0682 5.55551 9.66929 5.55551C8.30162 5.55551 7.30436 5.78127 6.70601 6.22296C6.07916 6.66465 5.76573 7.2732 5.76573 7.97009C5.76573 8.48049 5.82272 8.92218 5.96519 9.23628C6.07916 9.57981 6.3356 9.87428 6.7345 10.1197C7.07642 10.4043 7.58929 10.6595 8.27313 10.9147C8.89998 11.1994 9.75477 11.5134 10.8375 11.8962C12.2052 12.4066 13.3449 12.8778 14.2662 13.3587C15.178 13.8691 15.8903 14.409 16.4602 15.0372C17.0015 15.7046 17.4004 16.4604 17.6284 17.3241C17.8563 18.2075 17.9703 19.2872 17.9703 20.4945C17.9703 23.4097 17.201 25.5691 15.6908 27.0217C14.1522 28.4155 11.8918 29.1419 8.98546 29.1419C8.4156 29.1419 7.81724 29.083 7.1334 29.0143L5.0819 28.7296C4.39806 28.602 3.79971 28.5039 3.22984 28.4155L1.94765 28.1309C1.66272 28.072 1.46327 27.9738 1.37779 27.8757C1.26382 27.7481 1.23533 27.5321 1.29231 27.2082L1.69122 23.5275C1.71971 23.3017 1.77669 23.1447 1.86217 23.0563C1.91916 22.9974 2.09012 22.9582 2.37505 22.9974C2.68848 23.0563 3.11587 23.0956 3.65724 23.1545C4.17012 23.2134 4.73998 23.2821 5.36683 23.341C5.96519 23.3999 6.59203 23.4686 7.24738 23.498C7.87423 23.5569 8.44409 23.5962 8.95696 23.5962C10.3246 23.5962 11.2934 23.3704 11.8918 22.8993C12.4616 22.4576 12.7466 21.692 12.7466 20.6123C12.7466 20.2001 12.6896 19.8172 12.5756 19.4737C12.4616 19.1596 12.2337 18.875 11.9203 18.5511C11.5783 18.2959 11.1509 18.0112 10.5811 17.7266C10.0112 17.4714 9.27039 17.2162 8.35861 16.9021C6.93395 16.4604 5.70875 15.9794 4.73048 15.4789C3.73322 15.0077 2.93542 14.4286 2.33706 13.771C1.71021 13.133 1.25432 12.4066 0.969389 11.5233C0.684458 10.6693 0.541992 9.61908 0.541992 8.38234C0.541992 7.04745 0.741444 5.84997 1.16884 4.77028C1.56775 3.7593 2.19459 2.8661 2.9924 2.13976C3.76172 1.44287 4.73048 0.932472 5.87021 0.549672C6.98144 0.196319 8.23514 0.00982666 9.66929 0.00982666C10.1822 0.00982666 10.7805 0.0392728 11.4359 0.10798C12.0627 0.206134 12.6896 0.294473 13.3449 0.36318C13.9718 0.49078 14.5701 0.588934 15.14 0.677272C15.7098 0.804872 16.1942 0.903026 16.5931 0.961918C16.8781 1.02081 17.106 1.11896 17.2485 1.24656C17.3624 1.37416 17.4194 1.62936 17.3909 1.9729L17.106 5.27087V5.26105Z" fill="#FFE436"/>
<path d="M34.4014 23.8121H26.1574L25.4166 27.7775C25.3026 28.1898 25.1886 28.4744 25.0746 28.602C24.9322 28.7001 24.6472 28.759 24.2483 28.759H20.8482C20.4493 28.759 20.1928 28.6609 20.0789 28.5333C19.9364 28.3468 19.9079 28.0622 20.0219 27.6106L25.0651 1.83547C25.0936 1.64898 25.1506 1.45267 25.2076 1.26618C25.2646 1.10913 25.3501 0.952086 25.4641 0.79504C25.578 0.66744 25.749 0.539841 25.9769 0.441687C26.1764 0.382795 26.4613 0.314087 26.8032 0.314087H33.7366C34.0785 0.314087 34.3634 0.372979 34.5914 0.441687C34.7908 0.539841 34.9618 0.66744 35.0757 0.79504C35.1897 0.952086 35.2752 1.10913 35.3322 1.26618C35.3892 1.45267 35.4177 1.64898 35.4746 1.83547L40.5274 27.6106C40.6129 28.0523 40.6129 28.337 40.4989 28.5333C40.3565 28.6609 40.1 28.759 39.7011 28.759H36.3009C35.8735 28.759 35.5886 28.7001 35.4746 28.602C35.3322 28.4744 35.2182 28.1898 35.1327 27.7775L34.3919 23.8121H34.4014ZM27.1546 18.5118H33.4041L30.9822 5.54568H29.5861L27.1641 18.5118H27.1546Z" fill="#FFE436"/>
<path d="M50.0156 23.5274H51.4118L55.5718 1.29562C55.6573 0.883379 55.7712 0.598733 55.9137 0.471133C56.0277 0.372979 56.3126 0.314087 56.74 0.314087H60.1402C60.5391 0.314087 60.7955 0.412241 60.938 0.539841C61.052 0.726333 61.052 1.01098 60.9665 1.46249L55.9137 27.2377C55.8567 27.4242 55.8282 27.6205 55.7712 27.807C55.7143 27.964 55.6288 28.121 55.5148 28.2781C55.4008 28.4057 55.2299 28.5333 55.0304 28.6314C54.8025 28.6903 54.5175 28.759 54.1756 28.759H47.2423C46.9004 28.759 46.6154 28.7002 46.416 28.6314C46.188 28.5333 46.0171 28.4057 45.9031 28.2781C45.7891 28.121 45.7037 27.964 45.6467 27.807C45.5897 27.6205 45.5327 27.4242 45.5042 27.2377L40.4514 1.46249C40.3375 1.02079 40.3659 0.736148 40.5084 0.539841C40.6224 0.412241 40.8788 0.314087 41.2777 0.314087H44.6779C45.0768 0.314087 45.3617 0.372979 45.5042 0.471133C45.6182 0.598733 45.7322 0.883379 45.8461 1.29562L50.0156 23.5176V23.5274Z" fill="#FFE436"/>
<path d="M70.0463 12.1122H79.2591C79.5155 12.1122 79.715 12.1711 79.829 12.2692C79.9429 12.3968 79.9999 12.5833 79.9999 12.9072V16.7156C79.9999 17.0297 79.9429 17.2554 79.829 17.3536C79.715 17.4812 79.5155 17.5106 79.2591 17.5106H70.0463V21.7901C70.0463 22.4281 70.1318 22.8404 70.3313 23.0269C70.5022 23.2821 70.8726 23.3704 71.3855 23.3704H80.3418C80.5983 23.3704 80.7977 23.4293 80.9117 23.5274C81.0257 23.655 81.0827 23.8415 81.0827 24.1654V27.9738C81.0827 28.2879 81.0257 28.4842 80.9117 28.6118C80.7977 28.71 80.5983 28.7689 80.3418 28.7689H68.3272C67.5294 28.7689 66.9026 28.6707 66.4467 28.4842C65.9908 28.2977 65.6489 28.0131 65.4209 27.6892C65.1645 27.3064 65.022 26.8941 64.965 26.423C64.8796 25.9126 64.8511 25.3433 64.8511 24.774V4.30894C64.8511 3.73965 64.8796 3.17036 64.965 2.65996C65.022 2.18882 65.1645 1.77658 65.4209 1.39378C65.6489 1.07969 65.9908 0.79504 66.4467 0.598733C66.9026 0.412241 67.5294 0.314087 68.3272 0.314087H80.3418C80.5983 0.314087 80.7977 0.372979 80.9117 0.471133C81.0257 0.598733 81.0827 0.785225 81.0827 1.10913V4.9175C81.0827 5.23159 81.0257 5.45734 80.9117 5.5555C80.7977 5.6831 80.5983 5.71254 80.3418 5.71254H71.3855C70.8726 5.71254 70.5022 5.84014 70.3313 6.02663C70.1318 6.28183 70.0463 6.69408 70.0463 7.29282V12.1122Z" fill="#FFE436"/>
<path d="M98.5584 20.6417V27.964C98.5584 28.2781 98.5014 28.4744 98.3874 28.602C98.2735 28.7001 98.074 28.759 97.8176 28.759H94.104C93.819 28.759 93.6481 28.7001 93.5341 28.602C93.4201 28.4744 93.3632 28.2879 93.3632 27.964V4.30894C93.3632 3.73965 93.3917 3.17036 93.4771 2.65996C93.5341 2.18882 93.6766 1.77658 93.933 1.39378C94.161 1.07969 94.5029 0.79504 94.9588 0.598733C95.4147 0.412241 96.0415 0.314087 96.8393 0.314087H102.633C105.596 0.314087 107.857 1.13858 109.367 2.78756C110.848 4.43654 111.618 6.93947 111.618 10.2374C111.618 13.5354 110.848 16.1365 109.367 17.9131C107.857 19.7485 105.596 20.6417 102.633 20.6417H98.5489H98.5584ZM98.5584 15.1549H102.614C103.868 15.1549 104.836 14.7427 105.492 13.8593C106.119 13.0348 106.432 11.8275 106.432 10.2472C106.432 8.66697 106.119 7.61673 105.492 6.89039C104.836 6.1935 103.868 5.8107 102.614 5.8107H99.9071C99.3942 5.8107 99.0238 5.9383 98.8528 6.12479C98.6534 6.37999 98.5679 6.79223 98.5679 7.39097V15.1549H98.5584Z" fill="#FFE436"/>
<path d="M126.928 23.8121H118.684L117.943 27.7775C117.829 28.1898 117.715 28.4744 117.601 28.602C117.459 28.7001 117.174 28.759 116.775 28.759H113.375C112.976 28.759 112.72 28.6609 112.606 28.5333C112.463 28.3468 112.435 28.0622 112.549 27.6106L117.601 1.83547C117.63 1.64898 117.687 1.45267 117.744 1.26618C117.801 1.10913 117.886 0.952086 118 0.79504C118.114 0.66744 118.285 0.539841 118.513 0.441687C118.713 0.382795 118.998 0.314087 119.339 0.314087H126.273C126.615 0.314087 126.9 0.372979 127.128 0.441687C127.327 0.539841 127.498 0.66744 127.612 0.79504C127.726 0.952086 127.811 1.10913 127.868 1.26618C127.925 1.45267 127.954 1.64898 128.011 1.83547L133.064 27.6106C133.149 28.0523 133.149 28.337 133.035 28.5333C132.893 28.6609 132.636 28.759 132.237 28.759H128.837C128.41 28.759 128.125 28.7001 128.011 28.602C127.868 28.4744 127.754 28.1898 127.669 27.7775L126.928 23.8121ZM119.681 18.5118H125.931L123.509 5.54568H122.113L119.691 18.5118H119.681Z" fill="#FFE436"/>
<path d="M146.731 1.26618C146.845 1.01098 146.987 0.79504 147.215 0.598733C147.386 0.412241 147.671 0.314087 148.07 0.314087H151.755C152.04 0.314087 152.268 0.412241 152.41 0.539841C152.524 0.726333 152.496 1.01098 152.325 1.39378L145.249 16.6469V27.964C145.249 28.2781 145.192 28.4744 145.078 28.602C144.964 28.7001 144.765 28.759 144.508 28.759H140.852C140.567 28.759 140.396 28.7001 140.282 28.602C140.168 28.4744 140.111 28.2879 140.111 27.964V16.6174L132.921 1.39378C132.722 1.01098 132.693 0.726333 132.836 0.539841C132.95 0.412241 133.178 0.314087 133.491 0.314087H137.176C137.546 0.314087 137.831 0.412241 138.059 0.598733C138.23 0.785225 138.401 1.01098 138.515 1.26618L142.656 10.2374L146.74 1.26618H146.731Z" fill="#FFE436"/>
</g>
<defs>
<clipPath id="clip0_3_7852">
<rect width="151.954" height="29.1418" fill="white" transform="translate(0.523071)"/>
</clipPath>
</defs>
</svg>
