<svg width="65" height="63" viewBox="0 0 65 63" fill="none" xmlns="http://www.w3.org/2000/svg">
<rect x="0.861328" y="0.0664062" width="63.9307" height="62.4079" rx="10" fill="#DE1C2A"/>
<path d="M12.9462 49.6665C12.8647 49.6158 12.867 49.5513 12.8578 49.4683C12.7337 48.4077 12.8095 46.4353 12.8612 45.3205C13.2161 37.6049 14.4737 27.6068 17.4092 20.4665C18.8804 16.8871 22.358 10.7785 27.0449 13.5244C30.3388 15.453 32.4221 21.0636 33.4799 24.5669C33.5511 24.801 33.6016 24.9992 33.6671 25.2598H33.9404C34.084 24.7041 34.2206 24.1323 34.3963 23.5882C35.4036 20.4803 37.441 15.6421 40.1916 13.7457C45.795 9.88506 49.9444 19.2411 51.3077 23.3104C53.7907 30.7274 54.4269 38.8488 54.791 46.6416L54.76 49.5513L54.5326 49.6688C53.0511 49.5628 51.3984 49.8003 49.9387 49.6688C49.8181 49.6585 49.6229 49.6481 49.5781 49.5132C49.5229 47.7714 49.6194 46.0226 49.5712 44.2819C49.4242 38.9526 48.9372 33.3477 48.1402 28.1025C47.6544 24.9047 46.7184 18.78 44.5512 16.3337C41.9395 13.3872 39.8872 18.6209 39.2601 20.5818C38.5228 22.8896 38.114 25.2528 37.7465 27.6414C36.931 32.9488 36.5107 38.3692 36.3729 43.7643C36.3488 44.7107 36.4831 45.9223 36.3786 46.8203C36.3683 46.9045 36.3717 46.9679 36.2902 47.0186H31.3C31.2185 46.9679 31.2208 46.9033 31.2116 46.8203C31.1301 46.124 31.2357 45.1891 31.2174 44.4548C31.0703 38.7646 30.7109 33.0906 29.8449 27.4673C29.3672 24.3652 28.4288 18.7673 26.3111 16.3914C23.4261 13.1544 21.5116 19.0831 20.9201 21.1143C19.0343 27.5976 18.6415 34.6711 18.2533 41.408C17.9938 44.1263 18.0604 46.871 18.0122 49.5997C17.9708 49.6077 17.8985 49.6665 17.8778 49.6665H12.9462Z" fill="#FFD95F"/>
</svg>
