<svg width="40" height="40" viewBox="0 0 40 40" fill="none" xmlns="http://www.w3.org/2000/svg">
<circle cx="20.1794" cy="19.751" r="19.5" fill="#DFDBFF"/>
<path d="M25.319 19.5172C24.3181 19.2282 22.9613 18.8388 21.641 18.4433C21.6045 17.1108 21.565 15.8544 21.5163 14.7015C22.8853 15.103 24.2117 15.7632 25.5593 15.7905C28.1148 15.9487 28.5468 13.299 26.758 11.7353C25.3434 10.5489 23.2716 9.89788 21.1573 9.78532C21.0509 8.96698 20.92 8.35246 20.7649 7.99349C20.1838 6.65798 18.03 7.24511 19.0339 9.85225C18.1091 9.96176 17.2177 10.1778 16.4146 10.5033C13.3025 11.7536 11.4042 15.3464 13.558 17.9231C15.07 19.5233 17.4216 20.0039 19.6971 20.6063C19.688 20.7584 19.6819 20.9075 19.6728 21.0596C19.5998 22.3555 19.4629 23.5024 19.2925 24.5124C16.2199 23.4629 12.4476 21.4763 11.9609 24.9931C11.5654 27.8497 14.9179 29.027 17.9357 29.4772C17.7167 30.0522 17.5463 30.4568 17.4946 30.7124C17.1326 32.4281 19.0157 32.7841 19.7732 31.123C19.9983 30.6333 20.196 30.1648 20.3755 29.7054C20.4516 29.7084 20.5276 29.7115 20.6037 29.7145C23.2443 29.678 25.754 29.2491 27.3116 27.2595C29.0943 24.8623 28.9635 20.5637 25.3251 19.5172H25.319ZM18.4498 17.4242C16.0617 16.5785 16.8162 14.3121 19.7579 14.3972C19.8097 15.4468 19.8188 16.615 19.7944 17.8744C19.3016 17.7162 18.8423 17.5641 18.4498 17.4272V17.4242ZM21.5407 25.0387C21.6684 23.9101 21.7141 22.6689 21.7019 21.1965C21.9939 21.2938 22.2647 21.3912 22.4746 21.4794C25.0239 22.5624 24.7319 25.2699 21.5376 25.0387H21.5407Z" fill="#654EFF"/>
</svg>
