<svg width="64" height="63" viewBox="0 0 64 63" fill="none" xmlns="http://www.w3.org/2000/svg">
<rect width="63.9307" height="62.4079" rx="10" fill="#82DC27"/>
<g clip-path="url(#clip0_5_10587)">
<path d="M18.3093 45.4102C8.41538 35.5044 11.5691 18.4877 24.3792 12.9203C40.3599 5.97658 57.0308 21.2884 51.3457 37.7953C46.5882 51.6063 28.6813 55.7946 18.3121 45.413L18.3093 45.4102ZM25.0891 46.9649C28.3447 50.1026 32.5789 49.2247 35.7722 46.5203C42.3766 40.9302 45.4596 28.3907 42.6142 20.3001C41.0812 15.9447 37.6277 12.4304 32.6694 14.0077C22.2295 17.3295 17.26 39.4152 25.0863 46.9621L25.0891 46.9649Z" fill="white"/>
<path d="M34.7456 15.8058C37.789 15.2876 38.9515 18.5839 38.7337 21.0702C38.5074 23.6869 35.7921 27.6515 32.8448 25.9807C29.3234 23.9814 30.9441 16.4543 34.7427 15.8058H34.7456Z" fill="white"/>
</g>
<defs>
<clipPath id="clip0_5_10587">
<rect width="40" height="40" fill="white" transform="translate(12.4829 11.2041)"/>
</clipPath>
</defs>
</svg>
