<svg width="65" height="63" viewBox="0 0 65 63" fill="none" xmlns="http://www.w3.org/2000/svg">
<rect x="0.930664" width="63.9307" height="62.4079" rx="10" fill="#00A762"/>
<mask id="mask0_5_10545" style="mask-type:alpha" maskUnits="userSpaceOnUse" x="0" y="0" width="65" height="63">
<rect x="0.930664" width="63.9307" height="62.4079" rx="10" fill="#00A762"/>
</mask>
<g mask="url(#mask0_5_10545)">
<path d="M3.13936 54.6005L3.22644 52.4042C0.033607 52.0817 -2.06915 55.2132 -5.16846 55.1745C-4.91368 56.0517 -4.63309 56.9193 -4.32026 57.7707C-1.54346 57.416 0.317414 54.8649 3.13936 54.6005Z" fill="white"/>
<path d="M5.3361 65.7818C5.79407 66.6074 5.82632 67.8233 6.70999 68.2554C9.85767 68.1942 12.0862 65.814 14.4986 63.9499C12.8183 61.4473 11.4476 57.9964 12.9409 54.9713C14.1374 51.9397 17.256 49.3855 17.3947 46.0346C17.4269 45.2702 17.3076 44.4704 16.9754 43.6061C15.3274 39.3587 14.7437 33.6212 17.8914 29.864C16.1821 30.3252 15.1726 32.457 14.5921 34.076C12.7022 38.2234 15.092 42.0645 15.1758 46.0378C15.1887 46.7506 15.1307 47.4698 14.9565 48.189C13.3375 51.456 10.7123 54.3231 10.2866 58.0835C8.42251 59.2736 6.89382 61.3505 4.23635 60.6507C4.14282 61.3538 4.35568 62.4213 4.60078 63.2179C2.5464 63.1308 1.12737 64.6079 -0.588379 65.3593C-0.146542 66.0624 0.31787 66.7493 0.801633 67.4201C2.19487 66.53 3.60423 65.4432 5.3361 65.785V65.7818Z" fill="white"/>
<path d="M38.6931 24.6425C42.1439 25.1908 45.3174 26.5969 48.4006 27.7547C48.5199 24.5199 50.5678 21.9205 51.9772 19.3211C49.7164 19.2018 47.8233 20.4854 45.7463 21.0659C45.5657 19.2985 46.9074 17.4312 47.2137 15.6574C43.8564 15.8735 41.1957 17.8956 38.4157 19.5114C37.7739 17.9569 37.1289 16.396 36.4903 14.835L40.154 11.3519L40.2476 10.894L35.2971 10.6198C34.4456 9.12661 34.107 7.32701 33.1008 5.95312C32.2752 7.51084 31.7204 9.15886 30.898 10.7166L25.954 10.9939V11.3584L29.708 14.7479C29.25 16.4895 28.8243 18.3826 27.6923 19.6984C25.4928 18.3826 23.3255 16.9474 20.9164 16.0347C20.3359 15.8477 19.5103 15.5445 18.991 15.9412C19.7521 17.6215 20.8196 19.4275 20.6423 21.2626C19.6328 21.0756 18.8394 20.4305 17.8945 20.1596C16.7625 19.85 15.4176 19.2469 14.3179 19.6146C16.1497 22.1785 17.6462 24.8618 18.1654 27.9482C24.2447 25.0134 31.3366 23.4008 38.6963 24.6522L38.6931 24.6425ZM29.4339 20.2403L32.9169 17.5828C34.3553 18.4116 35.8808 19.4791 37.0386 20.6079L36.5839 21.0659C34.2941 20.824 31.8817 21.1272 29.708 21.1594C29.4661 20.9143 28.9791 20.5466 29.4339 20.2403Z" fill="white"/>
<path d="M3.68513 60.283C3.96249 59.5155 3.53033 58.8124 3.40778 58.0803C1.38887 57.1837 -1.4363 60.5281 -3.15527 60.6055C-2.79406 61.3957 -2.41028 62.1697 -2.00392 62.9308C-0.0656409 62.1504 1.405 60.254 3.68513 60.2863V60.283Z" fill="white"/>
<path d="M39.4222 71.2741C41.0444 74.9571 44.363 78.4725 42.8956 82.9682C43.8374 82.7393 44.763 82.478 45.6757 82.1845C46.9786 76.015 38.5063 72.2577 42.1764 65.9656C44.4985 62.5147 48.6492 59.2768 46.2981 54.6971C44.892 51.8591 41.9894 50.1788 42.0829 46.6344L42.1829 46.0378C43.1278 41.0066 46.9528 36.2464 44.2792 30.8702C43.5761 29.2835 42.1732 27.6645 40.6155 26.7485L40.522 26.8421C43.6374 29.8672 44.5856 34.8403 42.9053 38.8394C42.1216 41.1872 40.3994 43.5222 40.0511 46.0378C39.8834 47.2246 40.0253 48.4534 40.709 49.7466C42.6957 52.8911 46.1755 56.2226 44.0018 60.2894C41.7153 63.6467 37.8967 66.9138 39.419 71.2773L39.4222 71.2741Z" fill="white"/>
<path d="M62.0557 60.6506C59.5852 61.3859 57.9308 59.0897 56.0989 57.7158C56.0473 53.2103 51.3032 50.2561 51.0549 46.0377C51.0065 45.196 51.1355 44.2994 51.5193 43.3351C53.077 39.7327 52.5868 35.0531 50.8807 31.6958C50.3615 30.8121 49.4423 30.1123 48.5845 29.593C49.839 32.2505 51.3677 35.3917 50.6034 38.662C50.5163 41.184 49.0263 43.6092 49.0102 46.041C49.0037 46.9085 49.1908 47.7761 49.6875 48.6501C51.6741 52.2267 55.2475 55.613 53.9059 60.1023C53.535 61.4794 52.4352 62.5469 52.1611 63.9499C54.4864 65.8752 56.6827 68.0425 59.7658 68.1651C60.8656 67.4652 60.2528 64.3498 62.5136 65.7882L65.8161 67.4394C65.7839 67.5523 65.7452 67.6619 65.7 67.7716C66.2676 67.0008 66.8094 66.2106 67.319 65.4011C65.4194 64.8077 63.9585 63.1887 61.7815 63.3113C61.7525 62.4824 62.2427 61.5407 62.0557 60.6571V60.6506Z" fill="white"/>
<path d="M-1.72015 39.3907C1.48558 38.1071 4.53974 35.8753 8.35824 36.6429C9.48702 34.7175 11.3834 32.8567 12.9379 31.328C13.8893 30.5056 15.1954 29.9831 15.8695 29.0382C12.6928 26.9612 8.66463 28.9156 5.704 30.0476C5.42987 27.2676 4.30108 24.7327 1.94677 22.9008C1.71779 22.788 1.40173 22.5493 1.11792 22.5299C0.946995 22.5203 0.785741 22.588 0.659963 22.8041C1.72747 29.3704 -2.53932 33.95 -5.56445 38.9327C-4.55823 39.7551 -2.93923 39.6326 -1.71693 39.3907H-1.72015Z" fill="white"/>
<path d="M3.22676 42.69C4.05238 42.4449 5.33596 42.8707 5.70685 41.9547C5.6746 41.2517 6.95496 40.4325 5.89068 39.939C1.19495 39.3005 -1.9366 44.9025 -6.72263 42.474C-6.74198 42.9706 -6.75488 43.4705 -6.75488 43.9736C-6.75488 44.4767 -6.74198 44.9831 -6.72263 45.483C-3.10086 46.6182 0.104876 44.0414 3.22676 42.6868V42.69Z" fill="white"/>
<path d="M4.14254 46.3537C0.27244 45.8506 -2.42373 49.9819 -6.43896 49.0337C-6.30351 50.1142 -6.12291 51.1817 -5.9036 52.233C-2.29473 52.2234 -0.0339437 49.0079 3.50398 48.8273C3.99096 48.1856 4.04902 47.2406 4.14254 46.3537Z" fill="white"/>
<path d="M26.386 46.0378C26.3376 45.6959 26.2537 45.3476 26.1344 44.9832C24.5767 40.5841 21.3968 36.1851 23.2931 31.054C23.8123 29.5866 24.8508 28.3353 25.7667 27.0259C22.7416 28.6449 21.2161 32.0667 21.2807 35.5466C21.1484 39.3328 23.9446 42.574 24.3445 46.0378C24.5025 47.4342 24.2735 48.8662 23.2963 50.3852C21.3129 53.0781 18.7199 55.9162 19.9068 59.4573C21.0388 63.0307 25.4958 65.198 25.2217 69.3519C25.1927 74.0573 19.9616 77.0631 20.9356 82.1362C21.7773 82.4103 22.6287 82.6586 23.4931 82.8779C23.4834 82.8005 23.4769 82.7263 23.4802 82.6393C21.7418 76.5019 29.1595 72.9253 26.8697 66.788C25.8022 63.0307 20.942 60.9538 22.0127 56.4354C22.8029 52.7137 26.9794 50.1143 26.3924 46.0378H26.386Z" fill="white"/>
<path d="M22.3776 70.0001C23.1129 64.8012 16.4822 62.8759 16.8821 57.8092C16.853 53.9585 20.2426 51.5203 21.7391 48.2823C21.9938 47.4954 22.0809 46.7504 22.0454 46.0377C21.8616 42.4578 18.6365 39.6585 19.1719 35.6336C19.3525 32.6729 20.3587 30.0735 22.2841 27.845C19.6298 28.9125 18.5301 31.9699 17.798 34.5338C16.5241 38.649 19.5653 42.3482 19.8685 46.0345C20.004 47.6631 19.6073 49.2821 18.0754 50.9366C15.8758 53.5296 13.6441 56.7998 15.2308 60.2861C16.9143 64.1304 22.197 67.1233 19.9072 71.919C18.7462 74.728 16.0823 76.905 15.8081 80.0623C16.5692 80.4332 17.34 80.7783 18.127 81.104C17.698 76.7341 22.3228 74.2669 22.3776 70.0001Z" fill="white"/>
<path d="M70.3956 55.1518C67.8607 54.5423 66.0256 52.3105 63.2488 52.3105C62.9134 52.9265 63.1263 53.778 63.0682 54.5068C65.9966 54.9648 68.1026 57.4384 71.0277 57.8996C71.3567 57.0063 71.6566 56.1 71.9243 55.1809C71.6599 55.4744 71.2084 55.5389 70.3989 55.1551L70.3956 55.1518Z" fill="white"/>
<path d="M69.6601 60.6505C67.2768 60.07 65.4127 57.9285 62.8778 57.9898L62.4263 60.099C64.8386 60.1603 66.3964 62.2953 68.5636 62.9339C68.5733 63.0726 68.5604 63.208 68.5314 63.3435C69.0893 62.334 69.6021 61.2988 70.073 60.2377C69.9504 60.3893 69.8182 60.5312 69.6601 60.6473V60.6505Z" fill="white"/>
<path d="M73.2209 48.776C73.1951 48.8566 73.1726 48.934 73.1403 49.0146C68.9542 50.2047 66.2064 45.7734 62.146 46.441L62.604 48.7373C66.3612 48.8598 68.7058 52.4622 72.5888 52.3074C72.4211 52.6396 72.3792 53.1363 72.3308 53.6362C72.7243 52.0494 73.021 50.4272 73.2177 48.7727L73.2209 48.776Z" fill="white"/>
<path d="M60.0366 40.2165C60.3108 41.0131 60.4623 41.8355 61.0461 42.5063C65.5676 42.474 68.6799 47.2085 73.4143 45.3411V46.0313C73.424 46.1635 73.4272 46.2925 73.4336 46.4183C73.482 45.6088 73.511 44.7929 73.511 43.9705C73.511 43.3642 73.4949 42.7611 73.4691 42.1644C68.4831 45.8765 65.1258 38.5749 60.0398 40.2133L60.0366 40.2165Z" fill="white"/>
<path d="M36.7645 70.9095C34.3489 65.1657 41.9504 62.4179 42.073 57.1674C42.044 53.7779 38.4416 51.8557 37.6804 48.7403C36.1227 47.4245 34.5037 49.2628 32.6428 48.9209C31.2657 49.1983 29.1533 47.0278 28.3309 49.3789C27.3537 52.8297 22.8966 55.3646 24.8543 59.4573C26.7184 63.0919 31.2045 65.7526 29.7048 70.458C28.418 74.6764 24.2866 78.7013 26.3862 83.5003C28.6566 83.9002 30.9916 84.1066 33.3749 84.1066C35.7583 84.1066 37.9288 83.9099 40.125 83.539C41.8569 79.1174 38.6673 74.7474 36.7645 70.9095Z" fill="white"/>
<path d="M71.9502 38.9328C69.0798 34.1693 64.8066 29.7703 65.9934 23.5395C66.1192 23.1137 65.8419 22.6816 65.4484 22.6235C63.5875 23.3847 62.1427 25.2197 61.4074 27.0226C61.1042 28.0901 60.9236 29.2221 60.4979 30.2283C58.2661 29.0673 55.886 27.9417 53.1673 28.2126C52.1868 28.3352 50.7807 28.3997 50.6001 29.4059C53.6833 31.0539 56.2214 33.8049 58.1113 36.7365C59.4272 36.5204 61.0429 36.7043 62.4168 36.9171C65.529 37.7395 68.6541 41.1323 71.9502 38.9328Z" fill="white"/>
<path d="M26.2218 33.9855C27.17 32.6729 28.8503 33.7114 29.8855 33.8049V33.434C29.3147 32.5406 28.144 32.0924 26.9539 32.1343C26.6798 32.144 26.3992 32.1827 26.1315 32.2472C25.7349 32.3342 25.4575 32.6987 25.58 33.1566C25.5188 33.5533 25.6091 34.2564 26.2186 33.9855H26.2218Z" fill="white"/>
<path d="M30.3468 46.2601C31.7819 46.7761 33.7105 47.2696 35.2102 46.5343C38.8126 44.8572 40.3058 41.0097 40.9767 37.4653C40.8864 36.7913 40.9186 35.4787 39.9737 35.4464C38.9062 36.1237 37.3484 35.7238 36.2132 35.4464C35.5424 35.6625 35.5134 36.6429 34.7522 36.8267L34.2878 36.4559C33.8911 34.7788 33.646 32.3955 35.2038 31.2344C36.9453 30.5314 38.9932 30.225 40.7928 30.7765C41.1282 30.196 40.609 29.7412 40.5155 29.2188C39.6641 27.3256 37.7064 26.5581 35.9326 26.1001C35.0619 25.9937 34.1621 25.9195 33.2655 25.9131C33.0978 25.9131 32.9301 25.9098 32.7624 25.9131C30.2597 25.9647 27.8667 26.6064 26.4057 28.6673C26.1961 29.2478 25.2737 30.067 26.1316 30.5862C28.057 30.4637 30.25 30.2218 31.5336 31.873C31.5336 33.3404 32.4818 35.2916 30.895 35.9947C29.5792 34.7756 28.0215 36.5139 26.5896 35.5367C25.9155 35.14 25.4898 35.6044 25.2157 36.185C24.819 39.9712 26.7992 44.1509 30.3436 46.2569L30.3468 46.2601ZM31.4498 38.7489C31.94 38.4135 32.6172 38.2232 33.2687 38.2232C33.9202 38.2232 34.5426 38.4167 34.9264 38.8424C34.3814 40.0035 32.6108 39.2714 31.6336 39.4842C31.3014 39.3617 31.511 38.994 31.453 38.7489H31.4498ZM29.8017 41.2225C32.0012 41.5612 34.4136 41.1355 36.397 41.4096C35.6682 42.5093 34.5684 43.88 33.1042 43.7929C31.453 43.9155 31.0853 42.5674 29.892 41.774L29.805 41.2225H29.8017Z" fill="white"/>
<path d="M38.68 32.2343C38.5575 32.2343 38.4414 32.2439 38.3221 32.2472C37.6835 32.6729 35.8162 32.3665 36.4902 33.8017C37.6512 32.8825 39.2702 33.5275 40.4313 33.9823C40.8602 33.7694 40.7667 33.3405 40.7957 32.9728C40.4216 32.2794 39.5315 32.2149 38.68 32.231V32.2343Z" fill="white"/>
<path d="M50.7712 80.1526C50.4068 74.8248 42.6021 70.6935 47.8525 65.2302C49.6553 62.4792 52.6773 59.8507 51.6065 56.0612C50.5068 52.404 46.6205 50.1368 46.656 46.0344L46.6625 45.7152C47.5494 41.4387 50.2359 36.8881 48.0364 32.3375C47.4236 30.5089 46.0529 28.4287 44.192 27.6611C46.9688 30.8411 48.0718 36.027 46.4819 40.3067C45.682 42.0095 44.5791 44.0349 44.4662 46.0344H44.4597C44.4017 47.0794 44.6145 48.1179 45.2886 49.1015C47.3978 52.5233 51.0615 56.2838 48.9523 60.7408C46.5689 64.3142 42.4183 67.9457 44.7371 72.6511C46.3303 75.3182 48.7523 77.9789 48.3943 81.1976C49.2006 80.8718 49.994 80.5235 50.7745 80.1494L50.7712 80.1526Z" fill="white"/>
</g>
</svg>
