<svg width="40" height="40" viewBox="0 0 40 40" fill="none" xmlns="http://www.w3.org/2000/svg">
<circle cx="19.5928" cy="20.0649" r="19.5" fill="#DFDBFF"/>
<path d="M25.8923 16.2225L26.5926 14.5414L28.1439 13.7825C28.4896 13.6096 28.4896 13.0812 28.1439 12.9083L26.5926 12.1494L25.8923 10.4587C25.7328 10.0841 25.2453 10.0841 25.0857 10.4587L24.3854 12.1398L22.8253 12.8987C22.4796 13.0716 22.4796 13.6 22.8253 13.7729L24.3766 14.5318L25.0768 16.2225C25.2364 16.5971 25.7328 16.5971 25.8923 16.2225ZM18.8364 17.6634L17.427 14.3012C17.1167 13.5519 16.1239 13.5519 15.8137 14.3012L14.4043 17.6634L11.3018 19.1908C10.6103 19.5366 10.6103 20.6029 11.3018 20.9391L14.4043 22.4665L15.8137 25.8287C16.1328 26.578 17.1167 26.578 17.427 25.8287L18.8364 22.4665L21.9389 20.9391C22.6303 20.5933 22.6303 19.527 21.9389 19.1908L18.8364 17.6634ZM25.0768 23.9075L24.3766 25.5886L22.8253 26.3474C22.4796 26.5204 22.4796 27.0487 22.8253 27.2216L24.3766 27.9805L25.0768 29.6712C25.2364 30.0458 25.7239 30.0458 25.8835 29.6712L26.5838 27.9901L28.1439 27.2312C28.4896 27.0583 28.4896 26.53 28.1439 26.357L26.5926 25.5982L25.8923 23.9075C25.7328 23.5328 25.2364 23.5328 25.0768 23.9075Z" fill="#654EFF"/>
</svg>
