<svg width="25" height="48" viewBox="0 0 25 48" fill="none" xmlns="http://www.w3.org/2000/svg">
<path fill-rule="evenodd" clip-rule="evenodd" d="M24.7616 12.3002V23.984C24.7616 25.1008 23.8563 26.0061 22.7395 26.0061H17.6843C16.5675 26.0061 15.6622 25.1008 15.6622 23.984V18.9288C15.6622 18.3704 15.2096 17.9178 14.6512 17.9178H10.607C10.0486 17.9178 9.59597 18.3704 9.59597 18.9288V23.984C9.59597 25.1008 8.69065 26.0061 7.57388 26.0061H2.51867C1.4019 26.0061 0.496582 25.1008 0.496582 23.984V12.3002C0.496496 11.7343 0.733476 11.1944 1.14997 10.8114L11.2604 1.2722L11.2743 1.2583C12.0457 0.556804 13.2239 0.556804 13.9953 1.2583C13.9996 1.26324 14.0042 1.26789 14.0092 1.2722L24.1196 10.8114C24.5319 11.1964 24.7646 11.7361 24.7616 12.3002Z" fill="#AFB3BA"/>
<path d="M15.9751 39.4294V42.2546H9.23975V39.4294H15.9751ZM10.4214 40.3318V41.3523H14.8149V40.3318H10.4214ZM16.5659 33.4031V34.3054H8.63818V33.4031H12.022V32.5544H13.2144V33.4031H16.5659ZM12.6128 34.6062C14.686 34.6062 15.8462 35.0681 15.8462 35.9812C15.8462 36.803 14.9116 37.2649 13.2144 37.3455V37.9148H17.0493V38.8601H8.19775V37.9148H12.022V37.3455C10.3354 37.2703 9.39014 36.803 9.39014 35.9812C9.39014 35.0681 10.561 34.6062 12.6128 34.6062ZM12.6128 35.4119C11.3237 35.4226 10.6685 35.5837 10.6685 35.9812C10.6685 36.3679 11.3237 36.5505 12.6128 36.5505C13.9126 36.5505 14.5679 36.3679 14.5679 35.9812C14.5679 35.5837 13.9126 35.4226 12.6128 35.4119Z" fill="#AFB3BA"/>
</svg>
