<svg width="25" height="48" viewBox="0 0 25 48" fill="none" xmlns="http://www.w3.org/2000/svg">
<path fill-rule="evenodd" clip-rule="evenodd" d="M24.5936 12.3002V23.984C24.5936 25.1008 23.6883 26.0061 22.5716 26.0061H17.5163C16.3996 26.0061 15.4943 25.1008 15.4943 23.984V18.9288C15.4943 18.3704 15.0416 17.9178 14.4832 17.9178H10.439C9.88066 17.9178 9.428 18.3704 9.428 18.9288V23.984C9.428 25.1008 8.52268 26.0061 7.40591 26.0061H2.3507C1.23393 26.0061 0.328613 25.1008 0.328613 23.984V12.3002C0.328527 11.7343 0.565507 11.1944 0.982 10.8114L11.0924 1.2722L11.1063 1.2583C11.8777 0.556804 13.0559 0.556804 13.8273 1.2583C13.8316 1.26324 13.8363 1.26789 13.8412 1.2722L23.9516 10.8114C24.3639 11.1964 24.5967 11.7361 24.5936 12.3002Z" fill="#654EFF"/>
<path d="M15.8071 39.4294V42.2546H9.07178V39.4294H15.8071ZM10.2534 40.3318V41.3523H14.647V40.3318H10.2534ZM16.3979 33.4031V34.3054H8.47021V33.4031H11.854V32.5544H13.0464V33.4031H16.3979ZM12.4448 34.6062C14.5181 34.6062 15.6782 35.0681 15.6782 35.9812C15.6782 36.803 14.7437 37.2649 13.0464 37.3455V37.9148H16.8813V38.8601H8.02979V37.9148H11.854V37.3455C10.1675 37.2703 9.22217 36.803 9.22217 35.9812C9.22217 35.0681 10.3931 34.6062 12.4448 34.6062ZM12.4448 35.4119C11.1558 35.4226 10.5005 35.5837 10.5005 35.9812C10.5005 36.3679 11.1558 36.5505 12.4448 36.5505C13.7446 36.5505 14.3999 36.3679 14.3999 35.9812C14.3999 35.5837 13.7446 35.4226 12.4448 35.4119Z" fill="black"/>
</svg>
