<svg width="109" height="21" viewBox="0 0 109 21" fill="none" xmlns="http://www.w3.org/2000/svg">
<path d="M42.9141 2.92786C42.9141 7.19348 41.7422 10.8497 36.5391 13.4435L35.5859 12.131C38.0312 10.92 39.4844 9.51379 40.3047 7.83411L35.9141 8.25598L35.6953 6.75598L40.8359 6.42786C41.0156 5.77161 41.125 5.07629 41.1797 4.33411H36.4297V2.92786H42.9141ZM46.6328 1.53723V7.06848H48.7266V8.49036H46.6328V15.631H44.8984V1.53723H46.6328ZM56.7422 2.92786C56.7422 7.19348 55.5703 10.8497 50.3672 13.4435L49.4141 12.131C51.8594 10.92 53.3125 9.51379 54.1328 7.83411L49.7422 8.25598L49.5234 6.75598L54.6641 6.42786C54.8438 5.77161 54.9531 5.07629 55.0078 4.33411H50.2578V2.92786H56.7422ZM60.4609 1.53723V7.06848H62.5547V8.49036H60.4609V15.631H58.7266V1.53723H60.4609ZM69.6484 2.33411C72.6797 2.33411 74.9141 3.84973 74.9141 6.14661C74.9141 8.26379 73.0938 9.67786 70.5078 9.92786V12.5216H76.1328V13.9435H63.2266V12.5216H68.7891V9.92786C66.2188 9.67786 64.3984 8.26379 64.4141 6.14661C64.3984 3.84973 66.6328 2.33411 69.6484 2.33411ZM69.6484 3.74036C67.5859 3.72473 66.1016 4.66223 66.1172 6.14661C66.1016 7.67786 67.5859 8.58411 69.6484 8.58411C71.7422 8.58411 73.2109 7.67786 73.2109 6.14661C73.2109 4.66223 71.7422 3.72473 69.6484 3.74036ZM93.1172 1.53723V15.6622H91.4609V1.53723H93.1172ZM90.3047 1.83411V14.9591H88.6484V8.30286H87.0859V6.75598H88.6484V1.83411H90.3047ZM87.4453 3.20911V4.61536H86.4453V10.7091C86.8906 10.67 87.3125 10.6232 87.7109 10.5685L87.8203 11.8341C85.6016 12.2872 82.6953 12.3341 80.8984 12.3341L80.6953 10.8966L81.9766 10.881V4.61536H80.9766V3.20911H87.4453ZM83.5391 10.8497L84.8516 10.8029V4.61536H83.5391V10.8497ZM106.43 1.53723V15.6779H104.68V1.53723H106.43ZM98.8203 2.56848C100.945 2.56848 102.492 4.50598 102.508 7.55286C102.492 10.631 100.945 12.5529 98.8203 12.5529C96.6797 12.5529 95.1328 10.631 95.1328 7.55286C95.1328 4.50598 96.6797 2.56848 98.8203 2.56848ZM98.8203 4.13098C97.6172 4.13098 96.8047 5.39661 96.8047 7.55286C96.8047 9.72473 97.6172 10.9904 98.8203 10.9904C100.008 10.9904 100.82 9.72473 100.82 7.55286C100.82 5.39661 100.008 4.13098 98.8203 4.13098Z" fill="#8B95A1"/>
<path d="M10.7901 0.88147C4.8268 0.88147 -0.00927734 4.57442 -0.00927734 9.13107C-0.00927734 11.9349 1.82608 14.4117 4.62358 15.9041L3.56936 20.3115C3.48045 20.6799 3.89325 20.9625 4.20443 20.7497L9.26279 17.2981C9.76132 17.3521 10.2694 17.3807 10.7901 17.3807C16.7535 17.3807 21.5896 13.6877 21.5896 9.13107C21.5896 4.57442 16.7535 0.88147 10.7901 0.88147Z" fill="#8B95A1"/>
</svg>
