<svg width="109" height="21" viewBox="0 0 109 21" fill="none" xmlns="http://www.w3.org/2000/svg">
<path d="M43.7998 2.67688C43.7998 6.9425 42.6279 10.5988 37.4248 13.1925L36.4717 11.88C38.917 10.6691 40.3701 9.26282 41.1904 7.58313L36.7998 8.005L36.5811 6.505L41.7217 6.17688C41.9014 5.52063 42.0107 4.82532 42.0654 4.08313H37.3154V2.67688H43.7998ZM47.5186 1.28625V6.8175H49.6123V8.23938H47.5186V15.38H45.7842V1.28625H47.5186ZM57.6279 2.67688C57.6279 6.9425 56.4561 10.5988 51.2529 13.1925L50.2998 11.88C52.7451 10.6691 54.1982 9.26282 55.0186 7.58313L50.6279 8.005L50.4092 6.505L55.5498 6.17688C55.7295 5.52063 55.8389 4.82532 55.8936 4.08313H51.1436V2.67688H57.6279ZM61.3467 1.28625V6.8175H63.4404V8.23938H61.3467V15.38H59.6123V1.28625H61.3467ZM70.5342 2.08313C73.5654 2.08313 75.7998 3.59875 75.7998 5.89563C75.7998 8.01282 73.9795 9.42688 71.3936 9.67688V12.2706H77.0186V13.6925H64.1123V12.2706H69.6748V9.67688C67.1045 9.42688 65.2842 8.01282 65.2998 5.89563C65.2842 3.59875 67.5186 2.08313 70.5342 2.08313ZM70.5342 3.48938C68.4717 3.47375 66.9873 4.41125 67.0029 5.89563C66.9873 7.42688 68.4717 8.33313 70.5342 8.33313C72.6279 8.33313 74.0967 7.42688 74.0967 5.89563C74.0967 4.41125 72.6279 3.47375 70.5342 3.48938ZM94.0029 1.28625V15.4113H92.3467V1.28625H94.0029ZM91.1904 1.58313V14.7081H89.5342V8.05188H87.9717V6.505H89.5342V1.58313H91.1904ZM88.3311 2.95813V4.36438H87.3311V10.4581C87.7764 10.4191 88.1982 10.3722 88.5967 10.3175L88.7061 11.5831C86.4873 12.0363 83.5811 12.0831 81.7842 12.0831L81.5811 10.6456L82.8623 10.63V4.36438H81.8623V2.95813H88.3311ZM84.4248 10.5988L85.7373 10.5519V4.36438H84.4248V10.5988ZM107.315 1.28625V15.4269H105.565V1.28625H107.315ZM99.7061 2.3175C101.831 2.3175 103.378 4.255 103.394 7.30188C103.378 10.38 101.831 12.3019 99.7061 12.3019C97.5654 12.3019 96.0186 10.38 96.0186 7.30188C96.0186 4.255 97.5654 2.3175 99.7061 2.3175ZM99.7061 3.88C98.5029 3.88 97.6904 5.14563 97.6904 7.30188C97.6904 9.47375 98.5029 10.7394 99.7061 10.7394C100.894 10.7394 101.706 9.47375 101.706 7.30188C101.706 5.14563 100.894 3.88 99.7061 3.88Z" fill="white"/>
<path d="M11.6754 0.630493C5.71206 0.630493 0.875977 4.32344 0.875977 8.88009C0.875977 11.6839 2.71134 14.1607 5.50883 15.6531L4.45461 20.0606C4.3657 20.4289 4.7785 20.7115 5.08969 20.4988L10.148 17.0471C10.6466 17.1011 11.1546 17.1297 11.6754 17.1297C17.6387 17.1297 22.4748 13.4367 22.4748 8.88009C22.4748 4.32344 17.6387 0.630493 11.6754 0.630493Z" fill="white"/>
</svg>
