<svg width="49" height="50" viewBox="0 0 49 50" fill="none" xmlns="http://www.w3.org/2000/svg">
<circle cx="24.3641" cy="5.8368" r="5.49305" fill="#AFB3BA"/>
<path d="M35.3305 22.5594C35.3305 26.3332 30.3094 25.9964 24.2526 25.9964C18.1958 25.9964 13.397 26.3332 13.397 22.5594C13.397 17.3628 18.3069 13.1501 24.3637 13.1501C30.4205 13.1501 35.3305 17.3628 35.3305 22.5594Z" fill="#AFB3BA"/>
<path d="M5.86084 35.6072V41.9666H1.26318V35.6072H5.86084ZM2.43408 36.5417V41.0105H4.66846V36.5417H2.43408ZM8.5249 34.6619V38.3894H10.0181V39.3992H8.5249V44.3728H7.33252V34.6619H8.5249ZM18.5044 34.6619V44.3835H17.3013V34.6619H18.5044ZM13.2729 35.3708C14.7339 35.3708 15.7974 36.7029 15.8081 38.7976C15.7974 40.9138 14.7339 42.2351 13.2729 42.2351C11.8013 42.2351 10.7378 40.9138 10.7378 38.7976C10.7378 36.7029 11.8013 35.3708 13.2729 35.3708ZM13.2729 36.4451C12.4458 36.4451 11.8872 37.3152 11.8872 38.7976C11.8872 40.2908 12.4458 41.1609 13.2729 41.1609C14.0894 41.1609 14.6479 40.2908 14.6479 38.7976C14.6479 37.3152 14.0894 36.4451 13.2729 36.4451ZM28.3657 34.6619V44.3728H27.2271V34.6619H28.3657ZM26.4321 34.866V43.8894H25.2935V39.3132H24.2192V38.2498H25.2935V34.866H26.4321ZM24.4663 35.8113V36.7781H23.7788V40.9675C24.085 40.9407 24.375 40.9084 24.6489 40.8708L24.7241 41.741C23.1987 42.0525 21.2007 42.0847 19.9653 42.0847L19.8257 41.0964L20.7065 41.0857V36.7781H20.019V35.8113H24.4663ZM21.7808 41.0642L22.6831 41.032V36.7781H21.7808V41.0642ZM37.5181 34.6619V44.3835H36.3149V34.6619H37.5181ZM32.2866 35.3708C33.7476 35.3708 34.811 36.7029 34.8218 38.7976C34.811 40.9138 33.7476 42.2351 32.2866 42.2351C30.8149 42.2351 29.7515 40.9138 29.7515 38.7976C29.7515 36.7029 30.8149 35.3708 32.2866 35.3708ZM32.2866 36.4451C31.4595 36.4451 30.9009 37.3152 30.9009 38.7976C30.9009 40.2908 31.4595 41.1609 32.2866 41.1609C33.103 41.1609 33.6616 40.2908 33.6616 38.7976C33.6616 37.3152 33.103 36.4451 32.2866 36.4451ZM42.6099 37.4226C42.6099 39.0125 43.5444 40.6882 45.1128 41.3435L44.4575 42.2888C43.3081 41.7947 42.4702 40.7742 42.0298 39.5388C41.5786 40.8708 40.73 41.988 39.5913 42.5251L38.9038 41.5906C40.4399 40.8816 41.396 39.0769 41.396 37.4226V36.6062H39.2583V35.6179H44.7368V36.6062H42.6099V37.4226ZM47.0249 34.6619V44.3728H45.8218V34.6619H47.0249Z" fill="#AFB3BA"/>
</svg>
