<svg width="105" height="18" viewBox="0 0 105 18" fill="none" xmlns="http://www.w3.org/2000/svg">
<path d="M34.4141 3.94348V11.7091C35.7969 11.6935 37.0703 11.5919 38.5078 11.2872L38.7578 12.756C36.9609 13.1466 35.4141 13.2091 33.6328 13.2091H32.6797V3.94348H34.4141ZM44.2734 2.53723V16.6622H42.6172V2.53723H44.2734ZM41.2422 2.83411V15.9904H39.6016V8.50598H36.6484V7.09973H39.6016V2.83411H41.2422ZM57.6641 2.53723V16.6779H55.9141V2.53723H57.6641ZM50.0547 3.56848C52.1797 3.56848 53.7266 5.50598 53.7422 8.55286C53.7266 11.631 52.1797 13.5529 50.0547 13.5529C47.9141 13.5529 46.3672 11.631 46.3672 8.55286C46.3672 5.50598 47.9141 3.56848 50.0547 3.56848ZM50.0547 5.13098C48.8516 5.13098 48.0391 6.39661 48.0391 8.55286C48.0391 10.7247 48.8516 11.9904 50.0547 11.9904C51.2422 11.9904 52.0547 10.7247 52.0547 8.55286C52.0547 6.39661 51.2422 5.13098 50.0547 5.13098ZM71.5859 2.53723V16.6779H69.8672V9.02161H66.9922V13.256H60.2734V3.63098H62.0234V7.14661H65.2891V3.63098H66.9922V7.59973H69.8672V2.53723H71.5859ZM62.0234 11.8654H65.2891V8.50598H62.0234V11.8654ZM89.6328 2.53723V16.6622H87.9766V2.53723H89.6328ZM86.8203 2.83411V15.9591H85.1641V9.30286H83.6016V7.75598H85.1641V2.83411H86.8203ZM83.9609 4.20911V5.61536H82.9609V11.7091C83.4062 11.67 83.8281 11.6232 84.2266 11.5685L84.3359 12.8341C82.1172 13.2872 79.2109 13.3341 77.4141 13.3341L77.2109 11.8966L78.4922 11.881V5.61536H77.4922V4.20911H83.9609ZM80.0547 11.8497L81.3672 11.8029V5.61536H80.0547V11.8497ZM102.945 2.53723V16.6779H101.195V2.53723H102.945ZM95.3359 3.56848C97.4609 3.56848 99.0078 5.50598 99.0234 8.55286C99.0078 11.631 97.4609 13.5529 95.3359 13.5529C93.1953 13.5529 91.6484 11.631 91.6484 8.55286C91.6484 5.50598 93.1953 3.56848 95.3359 3.56848ZM95.3359 5.13098C94.1328 5.13098 93.3203 6.39661 93.3203 8.55286C93.3203 10.7247 94.1328 11.9904 95.3359 11.9904C96.5234 11.9904 97.3359 10.7247 97.3359 8.55286C97.3359 6.39661 96.5234 5.13098 95.3359 5.13098Z" fill="#8B95A1"/>
<path d="M12.1844 0.807495V10.0848L5.76765 0.807495H0.476074V17.7358H5.76765V8.45505L12.1844 17.7358H17.4759V0.807495H12.1844Z" fill="#8B95A1"/>
</svg>
