<svg width="105" height="28" viewBox="0 0 105 28" fill="none" xmlns="http://www.w3.org/2000/svg">
<path d="M34.1494 3.80701V11.5726C35.5322 11.557 36.8057 11.4554 38.2432 11.1508L38.4932 12.6195C36.6963 13.0101 35.1494 13.0726 33.3682 13.0726H32.415V3.80701H34.1494ZM44.0088 2.40076V16.5258H42.3525V2.40076H44.0088ZM40.9775 2.69763V15.8539H39.3369V8.36951H36.3838V6.96326H39.3369V2.69763H40.9775ZM57.3994 2.40076V16.5414H55.6494V2.40076H57.3994ZM49.79 3.43201C51.915 3.43201 53.4619 5.36951 53.4775 8.41638C53.4619 11.4945 51.915 13.4164 49.79 13.4164C47.6494 13.4164 46.1025 11.4945 46.1025 8.41638C46.1025 5.36951 47.6494 3.43201 49.79 3.43201ZM49.79 4.99451C48.5869 4.99451 47.7744 6.26013 47.7744 8.41638C47.7744 10.5883 48.5869 11.8539 49.79 11.8539C50.9775 11.8539 51.79 10.5883 51.79 8.41638C51.79 6.26013 50.9775 4.99451 49.79 4.99451ZM71.3213 2.40076V16.5414H69.6025V8.88513H66.7275V13.1195H60.0088V3.49451H61.7588V7.01013H65.0244V3.49451H66.7275V7.46326H69.6025V2.40076H71.3213ZM61.7588 11.7289H65.0244V8.36951H61.7588V11.7289ZM89.3682 2.40076V16.5258H87.7119V2.40076H89.3682ZM86.5557 2.69763V15.8226H84.8994V9.16638H83.3369V7.61951H84.8994V2.69763H86.5557ZM83.6963 4.07263V5.47888H82.6963V11.5726C83.1416 11.5336 83.5635 11.4867 83.9619 11.432L84.0713 12.6976C81.8525 13.1508 78.9463 13.1976 77.1494 13.1976L76.9463 11.7601L78.2275 11.7445V5.47888H77.2275V4.07263H83.6963ZM79.79 11.7133L81.1025 11.6664V5.47888H79.79V11.7133ZM102.681 2.40076V16.5414H100.931V2.40076H102.681ZM95.0713 3.43201C97.1963 3.43201 98.7432 5.36951 98.7588 8.41638C98.7432 11.4945 97.1963 13.4164 95.0713 13.4164C92.9307 13.4164 91.3838 11.4945 91.3838 8.41638C91.3838 5.36951 92.9307 3.43201 95.0713 3.43201ZM95.0713 4.99451C93.8682 4.99451 93.0557 6.26013 93.0557 8.41638C93.0557 10.5883 93.8682 11.8539 95.0713 11.8539C96.2588 11.8539 97.0713 10.5883 97.0713 8.41638C97.0713 6.26013 96.2588 4.99451 95.0713 4.99451Z" fill="white"/>
<path d="M11.9197 0.383789V9.66204L5.503 0.383789H0.211426V17.3138H5.503V8.03212L11.9197 17.3138H17.2113V0.383789H11.9197Z" fill="white"/>
</svg>
