<svg width="101" height="15" viewBox="0 0 101 15" fill="none" xmlns="http://www.w3.org/2000/svg">
<path d="M11.6665 0.537231V4.59973H13.6353V6.05286H11.6665V10.7247H9.90088V0.537231H11.6665ZM7.82275 1.61536C7.82275 5.36536 5.38525 8.03723 1.19775 9.25598L0.479004 7.88098C3.70557 6.95129 5.62744 5.19348 5.93213 3.03723H1.07275V1.61536H7.82275ZM12.1978 12.9747V14.381H2.58838V9.67786H4.354V12.9747H12.1978ZM26.1821 0.537231V10.9747H24.4478V7.28723H22.4478V5.84973H24.4478V4.50598H22.4478V3.09973H24.4478V0.537231H26.1821ZM22.2446 1.59973V2.99036H20.9946V7.49036C21.5259 7.45911 22.0415 7.42004 22.5415 7.36536L22.6196 8.63098C19.9478 9.06848 16.8071 9.11536 14.5571 9.11536L14.3696 7.67786L15.9634 7.66223V2.99036H14.729V1.59973H22.2446ZM26.5415 12.9747V14.381H16.9009V10.1622H18.6509V12.9747H26.5415ZM17.6509 7.64661L19.3228 7.58411V2.99036H17.6509V7.64661ZM40.0103 0.537231V7.69348H38.2759V6.45911H34.8696V5.13098H38.2759V3.74036H35.0571C34.1665 5.89661 32.104 7.30286 28.979 8.00598L28.3696 6.58411C31.6899 5.89661 33.3462 4.43567 33.5884 2.55286H29.1509V1.14661H35.5259C35.5259 1.59192 35.4868 2.01379 35.4321 2.41223H38.2759V0.537231H40.0103ZM40.0103 8.24036V11.9591H32.4634V13.131H40.3853V14.5216H30.729V10.6622H38.2759V9.61536H30.7134V8.24036H40.0103ZM54.1665 0.537231V14.6622H52.5103V0.537231H54.1665ZM51.2915 0.802856V13.9747H49.6509V6.86536H47.6196V5.45911H49.6509V0.802856H51.2915ZM46.3696 4.39661C46.3696 6.78723 47.229 9.17786 49.2446 10.3341L48.2134 11.6154C46.9087 10.8341 46.0415 9.49036 45.5571 7.88098C45.0571 9.62317 44.1587 11.1075 42.8228 11.9435L41.7603 10.6466C43.8071 9.41223 44.6978 6.84973 44.6978 4.39661V3.45911H42.2446V2.05286H48.6509V3.45911H46.3696V4.39661ZM67.104 1.86536V11.2247H60.3853V1.86536H67.104ZM62.104 3.22473V9.83411H65.4165V3.22473H62.104ZM71.3853 0.537231V14.6779H69.6353V0.537231H71.3853ZM78.5103 3.92786C78.4946 6.44348 79.7603 9.00598 81.9478 10.0529L80.8853 11.4435C79.354 10.67 78.2524 9.17786 77.6509 7.38098C77.0337 9.30286 75.8774 10.8966 74.2603 11.7091L73.1978 10.3185C75.4634 9.24036 76.7603 6.53723 76.7759 3.92786V1.67786H78.5103V3.92786ZM84.5259 0.537231V6.06848H86.6978V7.55286H84.5259V14.6622H82.7915V0.537231H84.5259ZM100.167 7.33411V8.72473H87.2915V7.33411H90.2915V5.53723C89.229 5.09192 88.6196 4.38098 88.6196 3.45911C88.6196 1.77161 90.604 0.771606 93.7134 0.771606C96.8228 0.771606 98.7915 1.77161 98.8071 3.45911C98.7993 4.38879 98.1899 5.09973 97.1196 5.53723V7.33411H100.167ZM93.7134 9.58411C96.7603 9.56848 98.5884 10.4747 98.604 12.0997C98.5884 13.7404 96.7603 14.631 93.7134 14.631C90.6353 14.631 88.7915 13.7404 88.7915 12.0997C88.7915 10.4747 90.6353 9.56848 93.7134 9.58411ZM93.7134 10.8966C91.6509 10.8966 90.5415 11.3029 90.5571 12.0997C90.5415 12.8966 91.6509 13.3185 93.7134 13.3185C95.729 13.3185 96.854 12.8966 96.8696 12.0997C96.854 11.3029 95.729 10.8966 93.7134 10.8966ZM93.7134 2.11536C91.6196 2.11536 90.4165 2.58411 90.4321 3.45911C90.4165 4.31848 91.6196 4.77161 93.7134 4.77161C95.7915 4.77161 97.0103 4.31848 97.0103 3.45911C97.0103 2.58411 95.7915 2.11536 93.7134 2.11536ZM92.0415 7.33411H95.3853V5.99036C94.8774 6.06067 94.3149 6.09973 93.7134 6.09973C93.1118 6.09973 92.5493 6.06067 92.0415 5.99036V7.33411Z" fill="#8B95A1"/>
</svg>
