<svg width="100" height="15" viewBox="0 0 100 15" fill="none" xmlns="http://www.w3.org/2000/svg">
<path d="M11.4639 0.433594V4.49609H13.4326V5.94922H11.4639V10.6211H9.69824V0.433594H11.4639ZM7.62012 1.51172C7.62012 5.26172 5.18262 7.93359 0.995117 9.15234L0.276367 7.77734C3.50293 6.84766 5.4248 5.08984 5.72949 2.93359H0.870117V1.51172H7.62012ZM11.9951 12.8711V14.2773H2.38574V9.57422H4.15137V12.8711H11.9951ZM25.9795 0.433594V10.8711H24.2451V7.18359H22.2451V5.74609H24.2451V4.40234H22.2451V2.99609H24.2451V0.433594H25.9795ZM22.042 1.49609V2.88672H20.792V7.38672C21.3232 7.35547 21.8389 7.31641 22.3389 7.26172L22.417 8.52734C19.7451 8.96484 16.6045 9.01172 14.3545 9.01172L14.167 7.57422L15.7607 7.55859V2.88672H14.5264V1.49609H22.042ZM26.3389 12.8711V14.2773H16.6982V10.0586H18.4482V12.8711H26.3389ZM17.4482 7.54297L19.1201 7.48047V2.88672H17.4482V7.54297ZM39.8076 0.433594V7.58984H38.0732V6.35547H34.667V5.02734H38.0732V3.63672H34.8545C33.9639 5.79297 31.9014 7.19922 28.7764 7.90234L28.167 6.48047C31.4873 5.79297 33.1436 4.33203 33.3857 2.44922H28.9482V1.04297H35.3232C35.3232 1.48828 35.2842 1.91016 35.2295 2.30859H38.0732V0.433594H39.8076ZM39.8076 8.13672V11.8555H32.2607V13.0273H40.1826V14.418H30.5264V10.5586H38.0732V9.51172H30.5107V8.13672H39.8076ZM53.9639 0.433594V14.5586H52.3076V0.433594H53.9639ZM51.0889 0.699219V13.8711H49.4482V6.76172H47.417V5.35547H49.4482V0.699219H51.0889ZM46.167 4.29297C46.167 6.68359 47.0264 9.07422 49.042 10.2305L48.0107 11.5117C46.7061 10.7305 45.8389 9.38672 45.3545 7.77734C44.8545 9.51953 43.9561 11.0039 42.6201 11.8398L41.5576 10.543C43.6045 9.30859 44.4951 6.74609 44.4951 4.29297V3.35547H42.042V1.94922H48.4482V3.35547H46.167V4.29297ZM66.9014 1.76172V11.1211H60.1826V1.76172H66.9014ZM61.9014 3.12109V9.73047H65.2139V3.12109H61.9014ZM71.1826 0.433594V14.5742H69.4326V0.433594H71.1826ZM78.3076 3.82422C78.292 6.33984 79.5576 8.90234 81.7451 9.94922L80.6826 11.3398C79.1514 10.5664 78.0498 9.07422 77.4482 7.27734C76.8311 9.19922 75.6748 10.793 74.0576 11.6055L72.9951 10.2148C75.2607 9.13672 76.5576 6.43359 76.5732 3.82422V1.57422H78.3076V3.82422ZM84.3232 0.433594V5.96484H86.4951V7.44922H84.3232V14.5586H82.5889V0.433594H84.3232ZM99.9639 7.23047V8.62109H87.0889V7.23047H90.0889V5.43359C89.0264 4.98828 88.417 4.27734 88.417 3.35547C88.417 1.66797 90.4014 0.667969 93.5107 0.667969C96.6201 0.667969 98.5889 1.66797 98.6045 3.35547C98.5967 4.28516 97.9873 4.99609 96.917 5.43359V7.23047H99.9639ZM93.5107 9.48047C96.5576 9.46484 98.3857 10.3711 98.4014 11.9961C98.3857 13.6367 96.5576 14.5273 93.5107 14.5273C90.4326 14.5273 88.5889 13.6367 88.5889 11.9961C88.5889 10.3711 90.4326 9.46484 93.5107 9.48047ZM93.5107 10.793C91.4482 10.793 90.3389 11.1992 90.3545 11.9961C90.3389 12.793 91.4482 13.2148 93.5107 13.2148C95.5264 13.2148 96.6514 12.793 96.667 11.9961C96.6514 11.1992 95.5264 10.793 93.5107 10.793ZM93.5107 2.01172C91.417 2.01172 90.2139 2.48047 90.2295 3.35547C90.2139 4.21484 91.417 4.66797 93.5107 4.66797C95.5889 4.66797 96.8076 4.21484 96.8076 3.35547C96.8076 2.48047 95.5889 2.01172 93.5107 2.01172ZM91.8389 7.23047H95.1826V5.88672C94.6748 5.95703 94.1123 5.99609 93.5107 5.99609C92.9092 5.99609 92.3467 5.95703 91.8389 5.88672V7.23047Z" fill="white"/>
</svg>
