<svg width="115" height="20" viewBox="0 0 115 20" fill="none" xmlns="http://www.w3.org/2000/svg">
<path d="M54.6104 1.76562V15.8906H52.9541V1.76562H54.6104ZM51.7979 2.0625V15.1875H50.1416V8.53125H48.5791V6.98438H50.1416V2.0625H51.7979ZM48.9385 3.4375V4.84375H47.9385V10.9375C48.3838 10.8984 48.8057 10.8516 49.2041 10.7969L49.3135 12.0625C47.0947 12.5156 44.1885 12.5625 42.3916 12.5625L42.1885 11.125L43.4697 11.1094V4.84375H42.4697V3.4375H48.9385ZM45.0322 11.0781L46.3447 11.0312V4.84375H45.0322V11.0781ZM67.9229 1.76562V15.9062H66.1729V1.76562H67.9229ZM60.3135 2.79688C62.4385 2.79688 63.9854 4.73438 64.001 7.78125C63.9854 10.8594 62.4385 12.7812 60.3135 12.7812C58.1729 12.7812 56.626 10.8594 56.626 7.78125C56.626 4.73438 58.1729 2.79688 60.3135 2.79688ZM60.3135 4.35938C59.1104 4.35938 58.2979 5.625 58.2979 7.78125C58.2979 9.95312 59.1104 11.2188 60.3135 11.2188C61.501 11.2188 62.3135 9.95312 62.3135 7.78125C62.3135 5.625 61.501 4.35938 60.3135 4.35938ZM81.4854 3.01562V4.29688C81.4697 6.01562 81.501 7.98438 80.8604 10.9688L79.1572 10.7969C79.3994 9.66406 79.5479 8.65625 79.6416 7.75L71.3135 8.21875L71.0635 6.73438L79.7354 6.42188C79.7666 5.6875 79.7744 5.03125 79.7822 4.42188H71.501V3.01562H81.4854ZM82.876 12.7188V14.1562H70.001V12.7188H74.751V9.23438H76.4697V12.7188H82.876ZM99.8916 1.76562V15.8906H98.2354V1.76562H99.8916ZM97.0791 2.0625V15.1875H95.4229V8.53125H93.8604V6.98438H95.4229V2.0625H97.0791ZM94.2197 3.4375V4.84375H93.2197V10.9375C93.665 10.8984 94.0869 10.8516 94.4854 10.7969L94.5947 12.0625C92.376 12.5156 89.4697 12.5625 87.6729 12.5625L87.4697 11.125L88.751 11.1094V4.84375H87.751V3.4375H94.2197ZM90.3135 11.0781L91.626 11.0312V4.84375H90.3135V11.0781ZM113.204 1.76562V15.9062H111.454V1.76562H113.204ZM105.595 2.79688C107.72 2.79688 109.267 4.73438 109.282 7.78125C109.267 10.8594 107.72 12.7812 105.595 12.7812C103.454 12.7812 101.907 10.8594 101.907 7.78125C101.907 4.73438 103.454 2.79688 105.595 2.79688ZM105.595 4.35938C104.392 4.35938 103.579 5.625 103.579 7.78125C103.579 9.95312 104.392 11.2188 105.595 11.2188C106.782 11.2188 107.595 9.95312 107.595 7.78125C107.595 5.625 106.782 4.35938 105.595 4.35938Z" fill="white"/>
<path d="M11.0527 11.7457L12.356 11.3987L11.3314 10.2285L11.0527 11.7457Z" fill="white"/>
<path d="M6.66097 10.6365L5.32178 10.9925L5.7478 12.5977L7.08699 12.2418C7.26136 12.195 7.81501 11.9847 7.61188 11.2243C7.51122 10.8433 7.14272 10.5089 6.65917 10.6365H6.66097Z" fill="white"/>
<path d="M27.0079 5.16472C26.0265 5.42537 25.4404 6.4356 25.7011 7.41708C25.9617 8.39855 26.972 8.98456 27.9535 8.72391C28.9349 8.46327 29.5209 7.45303 29.2603 6.47156C28.9996 5.49008 27.9894 4.90407 27.0079 5.16472Z" fill="white"/>
<path d="M28.2732 9.92288C26.6303 10.3597 24.9387 9.37821 24.5019 7.73523C24.0651 6.09225 25.0466 4.40073 26.6896 3.96392C27.9515 3.62778 29.2385 4.1311 29.9666 5.12515V0.5L1.08675 8.24035C0.454007 8.40932 0.0801115 9.06004 0.249083 9.69099L2.55537 18.2942C2.72434 18.9269 3.37506 19.3008 4.00601 19.1318L29.9666 12.1752V8.76164C29.5657 9.3117 28.9815 9.73413 28.2732 9.92108V9.92288ZM7.40702 13.4425L6.06783 13.7984L6.39678 15.0334C6.48486 15.3641 6.28713 15.7057 5.95638 15.7937C5.62562 15.8818 5.28408 15.6841 5.196 15.3533L3.96287 10.7138C3.87479 10.3831 4.07252 10.0415 4.40327 9.95343L6.34106 9.43753C7.55801 9.11397 8.55387 9.93007 8.81272 10.9061C9.07876 11.9092 8.6815 13.1028 7.40522 13.4425H7.40702ZM14.8903 13.3508C14.6315 13.5773 14.2396 13.5504 14.0149 13.2933L13.2689 12.4431L10.8044 13.0992L10.6031 14.1921C10.5582 14.4366 10.3766 14.6199 10.1519 14.6811C10.0656 14.7044 9.97395 14.708 9.88048 14.6918C9.54253 14.6307 9.31963 14.3072 9.38255 13.9692L10.3407 8.74726C10.3838 8.51358 10.5564 8.32483 10.7865 8.26012C11.0147 8.2008 11.261 8.27091 11.4192 8.44887L14.9496 12.4772C15.1761 12.7343 15.1492 13.1279 14.8921 13.3526L14.8903 13.3508ZM18.3704 7.26247L17.1175 10.4424L17.5489 12.0674C17.637 12.3981 17.4393 12.7397 17.1085 12.8278C16.7778 12.9158 16.4362 12.7181 16.3481 12.3873L15.8844 10.6419L13.2617 8.63402C12.9885 8.4255 12.9381 8.03542 13.1467 7.76399C13.3552 7.49256 13.7453 7.44043 14.0167 7.64895L16.2187 9.33507L17.2128 6.81128C17.3386 6.49311 17.6981 6.33492 18.0181 6.46075C18.3363 6.58658 18.4944 6.9461 18.3686 7.26606L18.3704 7.26247ZM24.7033 9.88153C24.2934 10.6293 23.6157 11.1614 22.7924 11.3789C21.1495 11.8157 19.4579 10.8342 19.0211 9.19126C18.5843 7.54828 19.5658 5.85677 21.2088 5.41996C21.8937 5.2384 22.6271 5.29772 23.2724 5.59073C23.5852 5.73273 23.7236 6.09944 23.5816 6.41222C23.4396 6.72499 23.0729 6.86341 22.7601 6.7214C22.37 6.54524 21.944 6.50929 21.5287 6.62073C20.5473 6.88138 19.9613 7.89162 20.2219 8.87309C20.4826 9.85457 21.4928 10.4406 22.4743 10.1799C22.965 10.0487 23.3713 9.73233 23.6157 9.28474C23.7811 8.98454 24.1586 8.87309 24.4588 9.03847C24.759 9.20385 24.8704 9.58134 24.7051 9.88153H24.7033Z" fill="white"/>
</svg>
