<svg width="116" height="19" viewBox="0 0 116 19" fill="none" xmlns="http://www.w3.org/2000/svg">
<path d="M55.1143 1.53723V15.6622H53.458V1.53723H55.1143ZM52.3018 1.83411V14.9591H50.6455V8.30286H49.083V6.75598H50.6455V1.83411H52.3018ZM49.4424 3.20911V4.61536H48.4424V10.7091C48.8877 10.67 49.3096 10.6232 49.708 10.5685L49.8174 11.8341C47.5986 12.2872 44.6924 12.3341 42.8955 12.3341L42.6924 10.8966L43.9736 10.881V4.61536H42.9736V3.20911H49.4424ZM45.5361 10.8497L46.8486 10.8029V4.61536H45.5361V10.8497ZM68.4268 1.53723V15.6779H66.6768V1.53723H68.4268ZM60.8174 2.56848C62.9424 2.56848 64.4893 4.50598 64.5049 7.55286C64.4893 10.631 62.9424 12.5529 60.8174 12.5529C58.6768 12.5529 57.1299 10.631 57.1299 7.55286C57.1299 4.50598 58.6768 2.56848 60.8174 2.56848ZM60.8174 4.13098C59.6143 4.13098 58.8018 5.39661 58.8018 7.55286C58.8018 9.72473 59.6143 10.9904 60.8174 10.9904C62.0049 10.9904 62.8174 9.72473 62.8174 7.55286C62.8174 5.39661 62.0049 4.13098 60.8174 4.13098ZM81.9893 2.78723V4.06848C81.9736 5.78723 82.0049 7.75598 81.3643 10.7404L79.6611 10.5685C79.9033 9.43567 80.0518 8.42786 80.1455 7.52161L71.8174 7.99036L71.5674 6.50598L80.2393 6.19348C80.2705 5.45911 80.2783 4.80286 80.2861 4.19348H72.0049V2.78723H81.9893ZM83.3799 12.4904V13.9279H70.5049V12.4904H75.2549V9.00598H76.9736V12.4904H83.3799ZM100.396 1.53723V15.6622H98.7393V1.53723H100.396ZM97.583 1.83411V14.9591H95.9268V8.30286H94.3643V6.75598H95.9268V1.83411H97.583ZM94.7236 3.20911V4.61536H93.7236V10.7091C94.1689 10.67 94.5908 10.6232 94.9893 10.5685L95.0986 11.8341C92.8799 12.2872 89.9736 12.3341 88.1768 12.3341L87.9736 10.8966L89.2549 10.881V4.61536H88.2549V3.20911H94.7236ZM90.8174 10.8497L92.1299 10.8029V4.61536H90.8174V10.8497ZM113.708 1.53723V15.6779H111.958V1.53723H113.708ZM106.099 2.56848C108.224 2.56848 109.771 4.50598 109.786 7.55286C109.771 10.631 108.224 12.5529 106.099 12.5529C103.958 12.5529 102.411 10.631 102.411 7.55286C102.411 4.50598 103.958 2.56848 106.099 2.56848ZM106.099 4.13098C104.896 4.13098 104.083 5.39661 104.083 7.55286C104.083 9.72473 104.896 10.9904 106.099 10.9904C107.286 10.9904 108.099 9.72473 108.099 7.55286C108.099 5.39661 107.286 4.13098 106.099 4.13098Z" fill="#8B95A1"/>
<path d="M11.5566 11.5172L12.8599 11.1703L11.8353 10.0001L11.5566 11.5172Z" fill="#8B95A1"/>
<path d="M7.16488 10.4081L5.82568 10.764L6.25171 12.3692L7.5909 12.0133C7.76526 11.9666 8.31892 11.7563 8.11579 10.9959C8.01513 10.6148 7.64662 10.2805 7.16308 10.4081H7.16488Z" fill="#8B95A1"/>
<path d="M27.5118 4.93633C26.5304 5.19698 25.9444 6.20721 26.205 7.18869C26.4657 8.17016 27.4759 8.75617 28.4574 8.49552C29.4388 8.23487 30.0248 7.22464 29.7642 6.24316C29.5035 5.26169 28.4933 4.67568 27.5118 4.93633Z" fill="#8B95A1"/>
<path d="M28.7771 9.69448C27.1342 10.1313 25.4426 9.14982 25.0058 7.50684C24.569 5.86385 25.5505 4.17234 27.1935 3.73553C28.4554 3.39938 29.7424 3.9027 30.4705 4.89676V0.271606L1.59066 8.01195C0.957913 8.18093 0.584018 8.83165 0.75299 9.4626L3.05928 18.0658C3.22825 18.6985 3.87897 19.0724 4.50992 18.9034L30.4705 11.9468V8.53325C30.0696 9.08331 29.4854 9.50574 28.7771 9.69269V9.69448ZM7.91092 13.2141L6.57173 13.57L6.90069 14.805C6.98877 15.1357 6.79104 15.4773 6.46028 15.5654C6.12953 15.6534 5.78799 15.4557 5.69991 15.1249L4.46677 10.4854C4.37869 10.1547 4.57643 9.81312 4.90718 9.72504L6.84496 9.20914C8.06192 8.88558 9.05777 9.70167 9.31662 10.6778C9.58267 11.6808 9.1854 12.8744 7.90913 13.2141H7.91092ZM15.3942 13.1225C15.1354 13.3489 14.7435 13.322 14.5188 13.0649L13.7728 12.2147L11.3083 12.8708L11.107 13.9637C11.0621 14.2082 10.8805 14.3915 10.6558 14.4527C10.5695 14.476 10.4779 14.4796 10.3844 14.4634C10.0464 14.4023 9.82354 14.0788 9.88646 13.7408L10.8446 8.51887C10.8877 8.28519 11.0603 8.09644 11.2904 8.03173C11.5187 7.97241 11.7649 8.04251 11.9231 8.22047L15.4535 12.2488C15.68 12.5059 15.6531 12.8996 15.396 13.1243L15.3942 13.1225ZM18.8743 7.03407L17.6214 10.214L18.0528 11.839C18.1409 12.1697 17.9432 12.5113 17.6124 12.5994C17.2817 12.6874 16.9401 12.4897 16.852 12.159L16.3883 10.4135L13.7656 8.40562C13.4924 8.1971 13.4421 7.80703 13.6506 7.5356C13.8591 7.26416 14.2492 7.21203 14.5206 7.42055L16.7226 9.10668L17.7167 6.58288C17.8425 6.26471 18.202 6.10653 18.522 6.23236C18.8402 6.35819 18.9984 6.7177 18.8725 7.03767L18.8743 7.03407ZM25.2072 9.65314C24.7973 10.4009 24.1196 10.933 23.2963 11.1505C21.6534 11.5873 19.9618 10.6059 19.525 8.96287C19.0882 7.31989 20.0697 5.62837 21.7127 5.19156C22.3976 5.01001 23.131 5.06933 23.7763 5.36233C24.0891 5.50434 24.2275 5.87105 24.0855 6.18382C23.9435 6.4966 23.5768 6.63501 23.264 6.49301C22.8739 6.31684 22.4479 6.28089 22.0327 6.39234C21.0512 6.65299 20.4652 7.66323 20.7258 8.6447C20.9865 9.62617 21.9967 10.2122 22.9782 9.95154C23.4689 9.82031 23.8752 9.50394 24.1196 9.05634C24.285 8.75615 24.6625 8.6447 24.9627 8.81008C25.2629 8.97545 25.3743 9.35294 25.209 9.65314H25.2072Z" fill="#8B95A1"/>
</svg>
