<svg width="73" height="46" viewBox="0 0 73 46" fill="none" xmlns="http://www.w3.org/2000/svg">
<path d="M22.9556 8.28758H50.4279V18.9456C50.4279 20.6024 49.0848 21.9456 47.4279 21.9456H25.9556C24.2987 21.9456 22.9556 20.6024 22.9556 18.9456V8.28758Z" fill="#AFB3BA"/>
<path d="M50.4282 5.3052L22.9559 5.30519L22.9559 3.40253C22.9558 1.74567 24.299 0.402524 25.9559 0.402524L47.4282 0.402526C49.0851 0.402526 50.4282 1.74567 50.4282 3.40252L50.4282 5.3052Z" fill="#AFB3BA"/>
<rect x="33.7876" y="16.1372" width="4.23901" height="2.66885" rx="1.33442" fill="white"/>
<rect x="39.7529" y="16.1372" width="7.85011" height="2.66885" rx="1.33442" fill="white"/>
<path d="M9.48828 35.1628V36.1404H0.625977V35.1628H9.48828ZM8.46777 33.4441V34.4001H1.71094V30.9734H8.41406V31.9402H2.90332V33.4441H8.46777ZM5.04102 36.8171C7.13574 36.8064 8.39258 37.4509 8.40332 38.5789C8.39258 39.7175 7.13574 40.3621 5.04102 40.3621C2.9248 40.3621 1.65723 39.7175 1.65723 38.5789C1.65723 37.4509 2.9248 36.8064 5.04102 36.8171ZM5.04102 37.7302C3.62305 37.7302 2.86035 38.031 2.87109 38.5789C2.86035 39.1482 3.62305 39.4382 5.04102 39.4382C6.42676 39.4382 7.2002 39.1482 7.21094 38.5789C7.2002 38.031 6.42676 37.7302 5.04102 37.7302ZM18.9951 35.9148V36.8816H10.1221V35.9148H13.9678V35.1091H11.25V32.531H16.707V31.8113H11.2178V30.8767H17.8994V33.4011H12.4316V34.1746H18.0928V35.1091H15.1494V35.9148H18.9951ZM17.9531 37.4939V40.3083H16.75V38.4392H11.1104V37.4939H17.9531ZM27.3096 31.4675C27.3096 32.6921 28.6738 33.9275 30.7471 34.196L30.2744 35.1628C28.6255 34.9158 27.3149 34.1047 26.6865 33.0037C26.0474 34.1047 24.7422 34.9158 23.1094 35.1628L22.6367 34.196C24.6885 33.9275 26.0527 32.6921 26.0527 31.4675V30.9734H27.3096V31.4675ZM31.1016 36.0007V36.989H27.2451V40.3728H26.0635V36.989H22.25V36.0007H31.1016ZM39.416 30.6619V33.3904H40.7803V34.3787H39.416V37.6873H38.2236V30.6619H39.416ZM36.5156 31.4675V32.4236H33.3467V35.0662C35.1729 35.0715 36.188 35.0071 37.3428 34.7654L37.4717 35.7322C36.2041 35.9792 35.0654 36.0437 32.9492 36.0437H32.165V31.4675H36.5156ZM39.8027 39.2126V40.1794H33.1963V36.946H34.3887V39.2126H39.8027ZM49.3955 30.6619V35.6785H48.2031V34.6257H46.248V35.3669H41.7041V31.0916H42.8965V32.3162H45.0664V31.0916H46.248V31.9509H48.2031V30.6619H49.3955ZM49.3955 36.0759V38.5681H44.1963V39.3093H49.707V40.2546H43.0039V37.6873H48.2031V37.0105H42.9932V36.0759H49.3955ZM42.8965 34.4216H45.0664V33.2292H42.8965V34.4216ZM46.248 33.7126H48.2031V32.8533H46.248V33.7126ZM61.7598 30.6619V40.3728H60.6104V30.6619H61.7598ZM59.8691 30.8445V39.9216H58.7627V37.0535H57.5596C57.2212 37.8054 56.5391 38.2781 55.6904 38.2781C54.498 38.2781 53.6172 37.3328 53.6279 35.9792C53.6172 34.615 54.498 33.6804 55.6904 33.6697C56.8936 33.6804 57.7637 34.615 57.7637 35.9792V36.0974H58.7627V34.8298H57.5918V33.8523H58.7627V30.8445H59.8691ZM58.0537 32.2087V33.1648H53.3594V32.2087H55.1211V30.9089H56.3135V32.2087H58.0537ZM55.6904 34.6902C55.0781 34.6902 54.6699 35.1736 54.6699 35.9792C54.6699 36.7634 55.0781 37.2683 55.6904 37.2683C56.3027 37.2683 56.7217 36.7634 56.7324 35.9792C56.7217 35.1736 56.3027 34.6902 55.6904 34.6902ZM67.0664 31.3386V32.2947H64.4023V33.24H66.9697V34.1531H64.4023V35.1736C65.5894 35.1628 66.4111 35.1145 67.3564 34.9373L67.4854 35.9041C66.3467 36.1189 65.4014 36.1511 63.8975 36.1511H63.2529V31.3386H67.0664ZM71.1914 30.6726V36.5808H70.0527V34.0564H69.043V36.5056H67.9258V30.8552H69.043V33.1003H70.0527V30.6726H71.1914ZM71.1914 37.0105V40.3728H69.999V37.9773H64.542V37.0105H71.1914Z" fill="#AFB3BA"/>
</svg>
