<svg width="73" height="46" viewBox="0 0 73 46" fill="none" xmlns="http://www.w3.org/2000/svg">
<path d="M23.1235 8.28758H50.5959V18.9456C50.5959 20.6024 49.2528 21.9456 47.5959 21.9456H26.1235C24.4667 21.9456 23.1235 20.6024 23.1235 18.9456V8.28758Z" fill="#654EFF"/>
<path d="M50.5962 5.3052L23.1238 5.30519L23.1238 3.40253C23.1238 1.74567 24.467 0.402524 26.1238 0.402524L47.5962 0.402526C49.253 0.402526 50.5962 1.74567 50.5962 3.40252L50.5962 5.3052Z" fill="#654EFF"/>
<rect x="33.9556" y="16.1372" width="4.23901" height="2.66885" rx="1.33442" fill="white"/>
<rect x="39.9209" y="16.1372" width="7.85011" height="2.66885" rx="1.33442" fill="white"/>
<path d="M9.65625 35.1628V36.1404H0.793945V35.1628H9.65625ZM8.63574 33.4441V34.4001H1.87891V30.9734H8.58203V31.9402H3.07129V33.4441H8.63574ZM5.20898 36.8171C7.30371 36.8064 8.56055 37.4509 8.57129 38.5789C8.56055 39.7175 7.30371 40.3621 5.20898 40.3621C3.09277 40.3621 1.8252 39.7175 1.8252 38.5789C1.8252 37.4509 3.09277 36.8064 5.20898 36.8171ZM5.20898 37.7302C3.79102 37.7302 3.02832 38.031 3.03906 38.5789C3.02832 39.1482 3.79102 39.4382 5.20898 39.4382C6.59473 39.4382 7.36816 39.1482 7.37891 38.5789C7.36816 38.031 6.59473 37.7302 5.20898 37.7302ZM19.1631 35.9148V36.8816H10.29V35.9148H14.1357V35.1091H11.418V32.531H16.875V31.8113H11.3857V30.8767H18.0674V33.4011H12.5996V34.1746H18.2607V35.1091H15.3174V35.9148H19.1631ZM18.1211 37.4939V40.3083H16.918V38.4392H11.2783V37.4939H18.1211ZM27.4775 31.4675C27.4775 32.6921 28.8418 33.9275 30.915 34.196L30.4424 35.1628C28.7935 34.9158 27.4829 34.1047 26.8545 33.0037C26.2153 34.1047 24.9102 34.9158 23.2773 35.1628L22.8047 34.196C24.8564 33.9275 26.2207 32.6921 26.2207 31.4675V30.9734H27.4775V31.4675ZM31.2695 36.0007V36.989H27.4131V40.3728H26.2314V36.989H22.418V36.0007H31.2695ZM39.584 30.6619V33.3904H40.9482V34.3787H39.584V37.6873H38.3916V30.6619H39.584ZM36.6836 31.4675V32.4236H33.5146V35.0662C35.3408 35.0715 36.356 35.0071 37.5107 34.7654L37.6396 35.7322C36.3721 35.9792 35.2334 36.0437 33.1172 36.0437H32.333V31.4675H36.6836ZM39.9707 39.2126V40.1794H33.3643V36.946H34.5566V39.2126H39.9707ZM49.5635 30.6619V35.6785H48.3711V34.6257H46.416V35.3669H41.8721V31.0916H43.0645V32.3162H45.2344V31.0916H46.416V31.9509H48.3711V30.6619H49.5635ZM49.5635 36.0759V38.5681H44.3643V39.3093H49.875V40.2546H43.1719V37.6873H48.3711V37.0105H43.1611V36.0759H49.5635ZM43.0645 34.4216H45.2344V33.2292H43.0645V34.4216ZM46.416 33.7126H48.3711V32.8533H46.416V33.7126ZM61.9277 30.6619V40.3728H60.7783V30.6619H61.9277ZM60.0371 30.8445V39.9216H58.9307V37.0535H57.7275C57.3892 37.8054 56.707 38.2781 55.8584 38.2781C54.666 38.2781 53.7852 37.3328 53.7959 35.9792C53.7852 34.615 54.666 33.6804 55.8584 33.6697C57.0615 33.6804 57.9316 34.615 57.9316 35.9792V36.0974H58.9307V34.8298H57.7598V33.8523H58.9307V30.8445H60.0371ZM58.2217 32.2087V33.1648H53.5273V32.2087H55.2891V30.9089H56.4814V32.2087H58.2217ZM55.8584 34.6902C55.2461 34.6902 54.8379 35.1736 54.8379 35.9792C54.8379 36.7634 55.2461 37.2683 55.8584 37.2683C56.4707 37.2683 56.8896 36.7634 56.9004 35.9792C56.8896 35.1736 56.4707 34.6902 55.8584 34.6902ZM67.2344 31.3386V32.2947H64.5703V33.24H67.1377V34.1531H64.5703V35.1736C65.7573 35.1628 66.5791 35.1145 67.5244 34.9373L67.6533 35.9041C66.5146 36.1189 65.5693 36.1511 64.0654 36.1511H63.4209V31.3386H67.2344ZM71.3594 30.6726V36.5808H70.2207V34.0564H69.2109V36.5056H68.0938V30.8552H69.2109V33.1003H70.2207V30.6726H71.3594ZM71.3594 37.0105V40.3728H70.167V37.9773H64.71V37.0105H71.3594Z" fill="black"/>
</svg>
