<svg width="96" height="20" viewBox="0 0 96 20" fill="none" xmlns="http://www.w3.org/2000/svg">
<path d="M47.7266 10.6467V12.0374H43.5547V14.6155H49.1484V16.0061H36.2422V14.6155H41.8047V12.0374H37.8203V4.58423H47.6016V5.99048H39.5859V7.58423H47.2734V8.95923H39.5859V10.6467H47.7266ZM57.3672 5.47485C57.3672 7.66235 59.5078 9.84985 62.4609 10.3655L61.6797 11.8186C59.3125 11.3186 57.375 9.88892 56.4609 7.99048C55.5234 9.87329 53.5859 11.3108 51.2266 11.8186L50.4609 10.3655C53.3828 9.83423 55.5078 7.64673 55.5234 5.47485V4.42798H57.3672V5.47485ZM62.9766 14.428V15.8655H50.0703V14.428H62.9766ZM79.9609 3.53735V17.6624H78.3047V3.53735H79.9609ZM77.1484 3.83423V16.9592H75.4922V10.303H73.9297V8.7561H75.4922V3.83423H77.1484ZM74.2891 5.20923V6.61548H73.2891V12.7092C73.7344 12.6702 74.1562 12.6233 74.5547 12.5686L74.6641 13.8342C72.4453 14.2874 69.5391 14.3342 67.7422 14.3342L67.5391 12.8967L68.8203 12.8811V6.61548H67.8203V5.20923H74.2891ZM70.3828 12.8499L71.6953 12.803V6.61548H70.3828V12.8499ZM93.2734 3.53735V17.678H91.5234V3.53735H93.2734ZM85.6641 4.5686C87.7891 4.5686 89.3359 6.5061 89.3516 9.55298C89.3359 12.6311 87.7891 14.553 85.6641 14.553C83.5234 14.553 81.9766 12.6311 81.9766 9.55298C81.9766 6.5061 83.5234 4.5686 85.6641 4.5686ZM85.6641 6.1311C84.4609 6.1311 83.6484 7.39673 83.6484 9.55298C83.6484 11.7249 84.4609 12.9905 85.6641 12.9905C86.8516 12.9905 87.6641 11.7249 87.6641 9.55298C87.6641 7.39673 86.8516 6.1311 85.6641 6.1311Z" fill="#8B95A1"/>
<path d="M12.0966 1.28255L8.84941 15.0459C8.81134 15.2039 8.68001 15.32 8.52013 15.3371C8.03476 15.3885 6.94793 15.457 5.72787 15.2324C3.26489 14.7585 0.733398 13.2738 0.733398 10.6072C0.733398 6.40264 5.68599 1.09792 11.7064 0.812416C11.9595 0.800996 12.1556 1.03321 12.0985 1.28065L12.0966 1.28255Z" fill="#8B95A1"/>
<path d="M9.40938 18.8469L12.6565 5.0855C12.6946 4.92752 12.8259 4.81142 12.9858 4.79428C13.4712 4.74289 14.558 4.67437 15.7781 4.89897C18.243 5.37101 20.7745 6.85755 20.7745 9.52418C20.7745 13.7288 15.8219 19.0335 9.80147 19.319C9.54832 19.3304 9.35227 19.0982 9.40938 18.8507V18.8469Z" fill="#8B95A1"/>
</svg>
