<svg width="95" height="29" viewBox="0 0 95 29" fill="none" xmlns="http://www.w3.org/2000/svg">
<path d="M47.0728 11.4436V12.8342H42.9009V15.4124H48.4946V16.803H35.5884V15.4124H41.1509V12.8342H37.1665V5.3811H46.9478V6.78735H38.9321V8.3811H46.6196V9.7561H38.9321V11.4436H47.0728ZM56.7134 6.27173C56.7134 8.45923 58.854 10.6467 61.8071 11.1624L61.0259 12.6155C58.6587 12.1155 56.7212 10.6858 55.8071 8.78735C54.8696 10.6702 52.9321 12.1077 50.5728 12.6155L49.8071 11.1624C52.729 10.6311 54.854 8.4436 54.8696 6.27173V5.22485H56.7134V6.27173ZM62.3228 15.2249V16.6624H49.4165V15.2249H62.3228ZM79.3071 4.33423V18.4592H77.6509V4.33423H79.3071ZM76.4946 4.6311V17.7561H74.8384V11.0999H73.2759V9.55298H74.8384V4.6311H76.4946ZM73.6353 6.0061V7.41235H72.6353V13.5061C73.0806 13.467 73.5024 13.4202 73.9009 13.3655L74.0103 14.6311C71.7915 15.0842 68.8853 15.1311 67.0884 15.1311L66.8853 13.6936L68.1665 13.678V7.41235H67.1665V6.0061H73.6353ZM69.729 13.6467L71.0415 13.5999V7.41235H69.729V13.6467ZM92.6196 4.33423V18.4749H90.8696V4.33423H92.6196ZM85.0103 5.36548C87.1353 5.36548 88.6821 7.30298 88.6978 10.3499C88.6821 13.428 87.1353 15.3499 85.0103 15.3499C82.8696 15.3499 81.3228 13.428 81.3228 10.3499C81.3228 7.30298 82.8696 5.36548 85.0103 5.36548ZM85.0103 6.92798C83.8071 6.92798 82.9946 8.1936 82.9946 10.3499C82.9946 12.5217 83.8071 13.7874 85.0103 13.7874C86.1978 13.7874 87.0103 12.5217 87.0103 10.3499C87.0103 8.1936 86.1978 6.92798 85.0103 6.92798Z" fill="white"/>
<path d="M11.4428 1.15021L8.1956 14.1562C8.15753 14.3055 8.0262 14.4152 7.86632 14.4314C7.38096 14.48 6.29413 14.5447 5.07406 14.3325C2.61109 13.8846 0.0795898 12.4817 0.0795898 9.96178C0.0795898 5.98857 5.03219 0.975746 11.0526 0.705949C11.3057 0.695157 11.5018 0.914592 11.4447 1.14842L11.4428 1.15021Z" fill="white"/>
<path d="M8.75508 18.7691L12.0022 5.76488C12.0403 5.61559 12.1716 5.50588 12.3315 5.48969C12.8169 5.44112 13.9037 5.37637 15.1238 5.58861C17.5887 6.03468 20.1202 7.43942 20.1202 9.95932C20.1202 13.9325 15.1676 18.9454 9.14717 19.2152C8.89402 19.226 8.69798 19.0065 8.75508 18.7727V18.7691Z" fill="white"/>
</svg>
