<svg width="129" height="137" viewBox="0 0 129 137" fill="none" xmlns="http://www.w3.org/2000/svg">
<g clip-path="url(#clip0_44_947)">
<path d="M72.5884 125.276C72.5884 125.276 72.7503 131.426 76.4518 134.082C80.1573 136.739 94.8131 137.737 100.45 136.077C106.087 134.417 106.569 126.604 103.832 123.281C101.094 119.958 99.6444 118.795 96.7448 118.129L72.5884 125.276Z" fill="#FCB119"/>
<path d="M56.4116 125.276C56.4116 125.276 56.2496 131.426 52.5481 134.082C48.8427 136.739 34.1869 137.737 28.5497 136.077C22.9125 134.417 22.4306 126.604 25.1682 123.281C27.9058 119.958 29.3556 118.795 32.2551 118.129L56.4116 125.276Z" fill="#FCB119"/>
<path d="M87.3312 13.9034C87.3312 13.9034 100.253 3.21667 105.238 0.796301C110.227 -1.62407 114.348 1.85275 115.102 6.23623C116.003 11.483 116.809 23.7347 114.92 33.2861" fill="#FFE436"/>
<path d="M41.6689 13.9034C41.6689 13.9034 28.7473 3.21667 23.758 0.796301C18.7687 -1.62407 14.6485 1.85275 13.8939 6.23623C12.9933 11.483 12.1874 23.7347 14.0757 33.2861" fill="#FFE436"/>
<path d="M128.557 71.3301C128.557 104.766 99.8774 127.511 64.5019 127.511C29.1264 127.511 0.442871 104.766 0.442871 71.3301C0.442871 37.8942 29.1225 6.42938 64.498 6.42938C99.8735 6.42938 128.553 37.8942 128.553 71.3301H128.557Z" fill="#FFE436"/>
<path d="M121.905 97.3274C118.756 93.5786 113.573 85.3911 111.231 69.4064C111.152 68.8624 110.35 68.9058 110.334 69.4576C110.046 80.8894 108.714 102.621 102.967 116.962C110.923 111.944 117.437 105.286 121.901 97.3274H121.905Z" fill="#FCB119"/>
<path d="M88.4687 21.4759C80.9788 21.4759 74.2948 25.0946 69.8981 30.7553C68.8828 32.0601 67.5081 33.0535 65.9201 33.4556C65.4697 33.5699 64.9917 33.6408 64.4979 33.6408C63.8817 33.6408 63.2891 33.5305 62.744 33.361C61.2942 32.9155 60.0419 31.9734 59.1057 30.7632C54.7089 25.0986 48.0249 21.4759 40.5311 21.4759C27.2934 21.4759 16.5603 32.7657 16.5603 46.6888C16.5603 60.6118 27.2934 71.9017 40.5311 71.9017C50.0001 71.9017 58.1853 66.1227 62.0803 57.7381C63.7039 57.9983 65.8608 58.2545 67.2513 58.4122C71.2649 66.4341 79.2565 71.9056 88.4727 71.9056C101.71 71.9056 112.443 60.6158 112.443 46.6927C112.443 32.7697 101.71 21.4798 88.4727 21.4798L88.4687 21.4759Z" fill="#FFD236"/>
<path d="M7.15857 97.4496C10.307 93.7008 15.4899 85.5133 17.8324 69.5286C17.9115 68.9846 18.7134 69.028 18.7292 69.5799C19.0176 81.0116 20.3488 102.744 26.0966 117.085C18.1406 112.066 11.6264 105.408 7.16252 97.4496H7.15857Z" fill="#FCB119"/>
<path d="M86.1183 26.2891C79.3632 26.2891 73.3349 29.4978 69.3688 34.516C68.4562 35.6749 67.2119 36.554 65.7818 36.9127C65.375 37.0152 64.9444 37.0783 64.498 37.0783C63.9449 37.0783 63.4077 36.9797 62.9139 36.8299C61.6063 36.4357 60.4765 35.5961 59.6311 34.5239C55.6689 29.4978 49.6367 26.2891 42.8776 26.2891C30.9357 26.2891 21.2573 36.3017 21.2573 48.6519C21.2573 61.0021 30.9357 71.0147 42.8776 71.0147C51.4183 71.0147 58.8015 65.8902 62.3134 58.4516C63.779 58.6803 65.7226 58.9089 66.9788 59.0469C70.5973 66.1582 77.8107 71.0147 86.1183 71.0147C98.0602 71.0147 107.739 61.0021 107.739 48.6519C107.739 36.3017 98.0602 26.2891 86.1183 26.2891Z" fill="#FFFF69"/>
<path d="M71.7153 64.8298C71.7153 69.6074 67.4608 75.142 64.5336 75.142C61.6063 75.142 57.3518 69.6074 57.3518 64.8298C57.3518 60.0521 60.5674 57.3361 64.5336 57.3361C68.4997 57.3361 71.7153 60.0521 71.7153 64.8298Z" fill="#6242FF"/>
<path d="M68.4485 62.5453C68.8911 61.5385 68.1859 60.2565 66.8733 59.6818C65.5607 59.1071 64.1378 59.4574 63.6951 60.4642C63.2524 61.4709 63.9576 62.753 65.2702 63.3277C66.5828 63.9024 68.0058 63.5521 68.4485 62.5453Z" fill="#BFB9FF"/>
<path d="M49.8383 48.8569C48.5386 48.4824 46.7768 47.9778 45.0623 47.4653C45.0149 45.7388 44.9636 44.1107 44.9003 42.6167C46.678 43.1371 48.4004 43.9925 50.1504 44.0279C53.4687 44.2329 54.0296 40.7995 51.7068 38.7733C49.8699 37.2359 47.1797 36.3923 44.4342 36.2465C44.2959 35.1861 44.1261 34.3898 43.9246 33.9246C43.1701 32.1941 40.3732 32.9549 41.6769 36.3332C40.4759 36.4751 39.3185 36.755 38.2756 37.1768C34.2344 38.7969 31.7693 43.4524 34.5662 46.7913C36.5295 48.8647 39.5832 49.4876 42.538 50.2681C42.5262 50.4652 42.5183 50.6583 42.5064 50.8554C42.4116 52.5347 42.2339 54.0209 42.0126 55.3296C38.0228 53.9696 33.1243 51.3955 32.4923 55.9524C31.9787 59.6539 36.332 61.1795 40.2508 61.7629C39.9663 62.5079 39.7451 63.0322 39.678 63.3633C39.2079 65.5866 41.6531 66.0478 42.6368 63.8955C42.9291 63.2608 43.1859 62.6538 43.419 62.0585C43.5177 62.0625 43.6165 62.0664 43.7152 62.0704C47.1442 62.0231 50.4032 61.4672 52.4258 58.8892C54.7407 55.7829 54.5708 50.2129 49.8462 48.8569H49.8383ZM40.9184 46.1448C37.8173 45.0489 38.797 42.1121 42.617 42.2225C42.6842 43.5825 42.696 45.0962 42.6644 46.7282C42.0245 46.5232 41.428 46.3261 40.9184 46.1487V46.1448ZM44.932 56.0115C45.0979 54.5491 45.1571 52.9408 45.1413 51.0328C45.5206 51.159 45.8721 51.2851 46.1447 51.3994C49.4551 52.8028 49.0759 56.3111 44.928 56.0115H44.932Z" fill="#392E3B"/>
<path d="M91.8147 48.8569C90.5151 48.4824 88.7532 47.9778 87.0388 47.4653C86.9913 45.7388 86.94 44.1107 86.8768 42.6167C88.6544 43.1371 90.3768 43.9925 92.1268 44.0279C95.4451 44.2329 96.0061 40.7995 93.6833 38.7733C91.8463 37.2359 89.1561 36.3923 86.4106 36.2465C86.2724 35.1861 86.1025 34.3898 85.901 33.9246C85.1465 32.1941 82.3497 32.9549 83.6533 36.3332C82.4524 36.4751 81.2949 36.755 80.252 37.1768C76.2108 38.7969 73.7458 43.4524 76.5426 46.7913C78.506 48.8647 81.5596 49.4876 84.5145 50.2681C84.5026 50.4652 84.4947 50.6583 84.4829 50.8554C84.3881 52.5347 84.2103 54.0209 83.9891 55.3296C79.9992 53.9696 75.1008 51.3955 74.4687 55.9524C73.9552 59.6539 78.3085 61.1795 82.2272 61.7629C81.9428 62.5079 81.7216 63.0322 81.6544 63.3633C81.1843 65.5866 83.6296 66.0478 84.6132 63.8955C84.9056 63.2608 85.1623 62.6538 85.3954 62.0585C85.4942 62.0625 85.5929 62.0664 85.6917 62.0704C89.1206 62.0231 92.3796 61.4672 94.4022 58.8892C96.7171 55.7829 96.5473 50.2129 91.8226 48.8569H91.8147ZM82.8948 46.1448C79.7938 45.0489 80.7735 42.1121 84.5935 42.2225C84.6606 43.5825 84.6725 45.0962 84.6409 46.7282C84.0009 46.5232 83.4044 46.3261 82.8948 46.1487V46.1448ZM86.9044 56.0115C87.0704 54.5491 87.1296 52.9408 87.1138 51.0328C87.493 51.159 87.8446 51.2851 88.1172 51.3994C91.4276 52.8028 91.0484 56.3111 86.9005 56.0115H86.9044Z" fill="#392E3B"/>
<path d="M56.5894 91.0242L50.9523 96.6494C50.2017 97.3984 48.985 97.3984 48.2305 96.6494L42.5933 91.0242C41.3806 89.814 42.2417 87.7484 43.9522 87.7484H55.2226C56.9371 87.7484 57.7943 89.814 56.5815 91.0242H56.5894Z" fill="#FFFF69"/>
<path d="M87.2442 91.0242L81.6071 96.6494C80.8565 97.3984 79.6398 97.3984 78.8853 96.6494L73.2481 91.0242C72.0353 89.814 72.8965 87.7484 74.607 87.7484H85.8774C87.5919 87.7484 88.4491 89.814 87.2363 91.0242H87.2442Z" fill="#FFFF69"/>
<path d="M71.9167 107.77L66.2796 113.395C65.529 114.144 64.3123 114.144 63.5578 113.395L57.9206 107.77C56.7078 106.56 57.569 104.494 59.2795 104.494H70.5499C72.2643 104.494 73.1216 106.56 71.9088 107.77H71.9167Z" fill="#FFFF69"/>
<path d="M94.3944 58.8892C95.5124 57.3913 96.0457 55.3178 95.7731 53.4217C94.1732 53.0827 91.9886 52.6727 89.6026 52.3771C91.1551 53.9893 90.2702 56.252 86.9085 56.0076C87.0388 54.8369 87.106 53.5636 87.1178 52.1248C86.2132 52.0538 85.3007 52.0065 84.3961 51.9947C84.2933 53.2167 84.1511 54.3244 83.9813 55.3296C79.9914 53.9696 75.0929 51.3955 74.4609 55.9524C73.9473 59.654 78.3006 61.1795 82.2194 61.7629C81.935 62.5079 81.7138 63.0322 81.6466 63.3634C81.1765 65.5866 83.6218 66.0478 84.6054 63.8955C84.8977 63.2609 85.1545 62.6538 85.3876 62.0586C85.4863 62.0625 85.5851 62.0664 85.6839 62.0704C89.1128 62.0231 92.3718 61.4673 94.3944 58.8892Z" fill="#3C2D7D"/>
<path d="M52.4179 58.8892C53.5358 57.3913 54.0691 55.3178 53.7965 53.4217C52.1966 53.0827 50.0121 52.6727 47.6261 52.3771C49.1786 53.9893 48.2937 56.252 44.9319 56.0076C45.0623 54.8369 45.1294 53.5636 45.1413 52.1248C44.2367 52.0538 43.3241 52.0065 42.4195 51.9947C42.3168 53.2167 42.1746 54.3244 42.0047 55.3296C38.0148 53.9696 33.1164 51.3955 32.4843 55.9524C31.9708 59.654 36.3241 61.1795 40.2428 61.7629C39.9584 62.5079 39.7372 63.0322 39.67 63.3634C39.1999 65.5866 41.6452 66.0478 42.6289 63.8955C42.9212 63.2609 43.178 62.6538 43.411 62.0586C43.5098 62.0625 43.6085 62.0664 43.7073 62.0704C47.1362 62.0231 50.3953 61.4673 52.4179 58.8892Z" fill="#3C2D7D"/>
</g>
<defs>
<clipPath id="clip0_44_947">
<rect width="128.114" height="136.889" fill="white" transform="translate(0.442871)"/>
</clipPath>
</defs>
</svg>
